<svg width="565" height="82" viewBox="0 0 565 82" fill="none" xmlns="http://www.w3.org/2000/svg">
<path d="M8.748 29.108L2.268 7.04H6.696L11.232 24.248L10.656 24.212L16.128 7.04H18.324L23.616 24.428H23.04L27.936 7.04H29.808L23.544 29.108H21.276L15.732 12.044L16.308 12.008L10.98 29.108H8.748ZM0.36 8.588V7.04H9.972V8.588L5.724 9.056H4.86L0.36 8.588ZM12.636 8.588V7.04H22.032V8.588L17.964 9.056H16.776L12.636 8.588ZM24.624 8.588V7.04H31.932V8.588L28.728 9.056H27.936L24.624 8.588ZM41.1688 29.432C38.8408 29.432 36.9568 28.712 35.5168 27.272C34.0768 25.808 33.3568 23.78 33.3568 21.188C33.3568 19.436 33.7288 17.924 34.4728 16.652C35.2408 15.38 36.2368 14.408 37.4608 13.736C38.6848 13.04 39.9928 12.692 41.3848 12.692C43.3288 12.692 44.8888 13.304 46.0648 14.528C47.2648 15.728 47.8648 17.336 47.8648 19.352C47.8648 20.12 47.7928 20.72 47.6488 21.152H35.0848V19.604H42.1408C42.9328 19.604 43.4608 19.448 43.7248 19.136C43.9888 18.8 44.1208 18.332 44.1208 17.732C44.1208 16.7 43.8328 15.872 43.2568 15.248C42.6808 14.6 41.9848 14.276 41.1688 14.276C40.5688 14.276 39.9928 14.48 39.4408 14.888C38.8888 15.296 38.4208 15.98 38.0368 16.94C37.6768 17.876 37.4968 19.136 37.4968 20.72C37.4968 22.76 37.9648 24.296 38.9008 25.328C39.8368 26.336 41.0248 26.84 42.4648 26.84C43.4488 26.84 44.2768 26.66 44.9488 26.3C45.6448 25.916 46.2688 25.412 46.8208 24.788L47.7568 25.652C46.4608 28.172 44.2648 29.432 41.1688 29.432ZM61.5479 29V27.668L64.8959 27.02H66.4799L69.7919 27.668V29H61.5479ZM63.6719 29C63.6959 28.496 63.7079 27.836 63.7079 27.02C63.7319 26.18 63.7439 25.316 63.7439 24.428C63.7679 23.516 63.7799 22.724 63.7799 22.052V20.504C63.7799 19.592 63.7679 18.836 63.7439 18.236C63.7439 17.636 63.7199 17 63.6719 16.328L61.2959 16.04V14.78L67.2359 12.692L67.7759 13.016L67.6679 17.696V22.052C67.6679 22.724 67.6679 23.516 67.6679 24.428C67.6919 25.316 67.7039 26.18 67.7039 27.02C67.7279 27.836 67.7519 28.496 67.7759 29H63.6719ZM65.7239 9.596C65.0039 9.596 64.4039 9.38 63.9239 8.948C63.4439 8.492 63.2039 7.928 63.2039 7.256C63.2039 6.536 63.4439 5.96 63.9239 5.528C64.4039 5.096 65.0039 4.88 65.7239 4.88C66.3959 4.88 66.9719 5.096 67.4519 5.528C67.9319 5.96 68.1719 6.536 68.1719 7.256C68.1719 7.928 67.9319 8.492 67.4519 8.948C66.9719 9.38 66.3959 9.596 65.7239 9.596ZM83.9121 29C83.9361 28.496 83.9481 27.836 83.9481 27.02C83.9721 26.204 83.9841 25.352 83.9841 24.464C84.0081 23.552 84.0201 22.748 84.0201 22.052V18.956C84.0201 17.636 83.8401 16.724 83.4801 16.22C83.1201 15.692 82.5321 15.428 81.7161 15.428C80.3241 15.428 78.8121 16.22 77.1801 17.804L76.8921 16.112H77.3961C79.1721 13.832 81.2001 12.692 83.4801 12.692C84.8961 12.692 86.0001 13.172 86.7921 14.132C87.5841 15.068 87.9801 16.556 87.9801 18.596V22.052C87.9801 22.748 87.9801 23.552 87.9801 24.464C87.9801 25.352 87.9921 26.204 88.0161 27.02C88.0401 27.836 88.0641 28.496 88.0881 29H83.9121ZM71.7801 29V27.668L75.1641 27.02H76.7481L79.9521 27.668V29H71.7801ZM73.9041 29C73.9281 28.496 73.9401 27.836 73.9401 27.02C73.9641 26.18 73.9761 25.316 73.9761 24.428C74.0001 23.516 74.0121 22.724 74.0121 22.052V20.324C74.0121 19.412 74.0001 18.692 73.9761 18.164C73.9761 17.612 73.9521 17 73.9041 16.328L71.5641 16.04V14.78L77.0361 12.692L77.6121 13.016L77.9361 16.796V22.052C77.9361 22.724 77.9361 23.516 77.9361 24.428C77.9601 25.316 77.9721 26.18 77.9721 27.02C77.9961 27.836 78.0201 28.496 78.0441 29H73.9041ZM81.8601 29V27.668L85.1721 27.02H86.7561L89.9961 27.668V29H81.8601ZM98.4398 29.108L91.7798 13.16H96.1718L100.816 25.508H100.132L104.416 13.16H106.432L100.348 29.108H98.4398ZM90.7357 14.528V13.16H99.3758V14.528L95.8478 15.104H93.8318L90.7357 14.528ZM101.356 14.528V13.16H107.62V14.528L105.1 15.068H104.416L101.356 14.528ZM108.939 29V27.668L112.287 27.02H113.871L117.183 27.668V29H108.939ZM111.063 29C111.087 28.496 111.099 27.836 111.099 27.02C111.123 26.18 111.135 25.316 111.135 24.428C111.159 23.516 111.171 22.724 111.171 22.052V20.504C111.171 19.592 111.159 18.836 111.135 18.236C111.135 17.636 111.111 17 111.063 16.328L108.687 16.04V14.78L114.627 12.692L115.167 13.016L115.059 17.696V22.052C115.059 22.724 115.059 23.516 115.059 24.428C115.083 25.316 115.095 26.18 115.095 27.02C115.119 27.836 115.143 28.496 115.167 29H111.063ZM113.115 9.596C112.395 9.596 111.795 9.38 111.315 8.948C110.835 8.492 110.595 7.928 110.595 7.256C110.595 6.536 110.835 5.96 111.315 5.528C111.795 5.096 112.395 4.88 113.115 4.88C113.787 4.88 114.363 5.096 114.843 5.528C115.323 5.96 115.563 6.536 115.563 7.256C115.563 7.928 115.323 8.492 114.843 8.948C114.363 9.38 113.787 9.596 113.115 9.596ZM125.003 29.432C123.707 29.432 122.675 29.108 121.907 28.46C121.163 27.812 120.791 26.768 120.791 25.328C120.791 24.848 120.791 24.38 120.791 23.924C120.815 23.468 120.827 22.916 120.827 22.268V15.176H118.379V13.484L122.375 12.944L120.791 14.132L122.303 8.588H124.967L124.787 13.808V14.456V24.968C124.787 25.784 124.943 26.384 125.255 26.768C125.591 27.128 126.023 27.308 126.551 27.308C127.151 27.308 127.823 27.032 128.567 26.48L129.359 27.344C128.519 28.736 127.067 29.432 125.003 29.432ZM122.843 15.176V13.16H128.819V15.176H122.843ZM138.376 29.432C136.048 29.432 134.164 28.712 132.724 27.272C131.284 25.808 130.564 23.78 130.564 21.188C130.564 19.436 130.936 17.924 131.68 16.652C132.448 15.38 133.444 14.408 134.668 13.736C135.892 13.04 137.2 12.692 138.592 12.692C140.536 12.692 142.096 13.304 143.272 14.528C144.472 15.728 145.072 17.336 145.072 19.352C145.072 20.12 145 20.72 144.856 21.152H132.292V19.604H139.348C140.14 19.604 140.668 19.448 140.932 19.136C141.196 18.8 141.328 18.332 141.328 17.732C141.328 16.7 141.04 15.872 140.464 15.248C139.888 14.6 139.192 14.276 138.376 14.276C137.776 14.276 137.2 14.48 136.648 14.888C136.096 15.296 135.628 15.98 135.244 16.94C134.884 17.876 134.704 19.136 134.704 20.72C134.704 22.76 135.172 24.296 136.108 25.328C137.044 26.336 138.232 26.84 139.672 26.84C140.656 26.84 141.484 26.66 142.156 26.3C142.852 25.916 143.476 25.412 144.028 24.788L144.964 25.652C143.668 28.172 141.472 29.432 138.376 29.432ZM160.915 37.064C160.075 37.064 159.331 36.836 158.683 36.38C158.059 35.948 157.735 35.384 157.711 34.688C157.831 34.112 158.119 33.68 158.575 33.392C159.055 33.104 159.583 32.96 160.159 32.96C160.591 32.96 161.023 33.044 161.455 33.212C161.911 33.404 162.367 33.776 162.823 34.328L163.831 35.624L162.571 36.236L161.599 35.624C162.535 35.096 163.339 34.352 164.011 33.392C164.683 32.432 165.223 31.376 165.631 30.224L167.035 26.372L171.751 13.16H173.731L167.431 29.54C166.447 32.084 165.475 33.968 164.515 35.192C163.555 36.44 162.355 37.064 160.915 37.064ZM166.063 30.908L158.755 13.16H163.111L167.719 25.724L167.971 26.372L166.063 30.908ZM157.747 14.492V13.16H166.351V14.492L162.895 14.96H160.879L157.747 14.492ZM168.547 14.492V13.16H174.919V14.492L172.363 14.96H171.715L168.547 14.492ZM184.224 29.432C182.736 29.432 181.38 29.108 180.156 28.46C178.956 27.788 177.996 26.84 177.276 25.616C176.58 24.368 176.232 22.856 176.232 21.08C176.232 19.328 176.592 17.828 177.312 16.58C178.056 15.308 179.028 14.348 180.228 13.7C181.452 13.028 182.784 12.692 184.224 12.692C185.616 12.692 186.912 13.028 188.112 13.7C189.336 14.348 190.32 15.296 191.064 16.544C191.808 17.792 192.18 19.304 192.18 21.08C192.18 22.856 191.82 24.368 191.1 25.616C190.404 26.864 189.444 27.812 188.22 28.46C187.02 29.108 185.688 29.432 184.224 29.432ZM184.224 27.848C185.4 27.848 186.3 27.296 186.924 26.192C187.572 25.088 187.896 23.408 187.896 21.152C187.896 18.848 187.572 17.132 186.924 16.004C186.3 14.876 185.4 14.312 184.224 14.312C181.752 14.312 180.516 16.592 180.516 21.152C180.516 25.616 181.752 27.848 184.224 27.848ZM200.666 29.432C199.298 29.432 198.194 28.988 197.354 28.1C196.538 27.212 196.154 25.688 196.202 23.528L196.31 14.708L197.174 15.536L194.15 14.888V13.592L199.874 12.908L200.306 13.268L200.126 17.912V23.348C200.126 24.62 200.318 25.496 200.702 25.976C201.11 26.456 201.674 26.696 202.394 26.696C203.162 26.696 203.93 26.468 204.698 26.012C205.49 25.532 206.222 24.896 206.894 24.104L207.506 25.508H206.966C206.102 26.828 205.13 27.812 204.05 28.46C202.994 29.108 201.866 29.432 200.666 29.432ZM206.57 29.288L206.21 25.436L206.318 15.32L204.23 14.888V13.664L209.846 12.908L210.278 13.268L210.17 17.912V27.236L212.186 27.668V29L206.57 29.288ZM231.421 29.432C230.125 29.432 229.093 29.108 228.325 28.46C227.581 27.812 227.209 26.768 227.209 25.328C227.209 24.848 227.209 24.38 227.209 23.924C227.233 23.468 227.245 22.916 227.245 22.268V15.176H224.797V13.484L228.793 12.944L227.209 14.132L228.721 8.588H231.385L231.205 13.808V14.456V24.968C231.205 25.784 231.361 26.384 231.673 26.768C232.009 27.128 232.441 27.308 232.969 27.308C233.569 27.308 234.241 27.032 234.985 26.48L235.777 27.344C234.937 28.736 233.485 29.432 231.421 29.432ZM229.261 15.176V13.16H235.237V15.176H229.261ZM244.974 29.432C243.486 29.432 242.13 29.108 240.906 28.46C239.706 27.788 238.746 26.84 238.026 25.616C237.33 24.368 236.982 22.856 236.982 21.08C236.982 19.328 237.342 17.828 238.062 16.58C238.806 15.308 239.778 14.348 240.978 13.7C242.202 13.028 243.534 12.692 244.974 12.692C246.366 12.692 247.662 13.028 248.862 13.7C250.086 14.348 251.07 15.296 251.814 16.544C252.558 17.792 252.93 19.304 252.93 21.08C252.93 22.856 252.57 24.368 251.85 25.616C251.154 26.864 250.194 27.812 248.97 28.46C247.77 29.108 246.438 29.432 244.974 29.432ZM244.974 27.848C246.15 27.848 247.05 27.296 247.674 26.192C248.322 25.088 248.646 23.408 248.646 21.152C248.646 18.848 248.322 17.132 247.674 16.004C247.05 14.876 246.15 14.312 244.974 14.312C242.502 14.312 241.266 16.592 241.266 21.152C241.266 25.616 242.502 27.848 244.974 27.848ZM274.751 29.432C273.263 29.432 271.907 29.108 270.683 28.46C269.483 27.788 268.523 26.84 267.803 25.616C267.107 24.368 266.759 22.856 266.759 21.08C266.759 19.328 267.119 17.828 267.839 16.58C268.583 15.308 269.555 14.348 270.755 13.7C271.979 13.028 273.311 12.692 274.751 12.692C276.143 12.692 277.439 13.028 278.639 13.7C279.863 14.348 280.847 15.296 281.591 16.544C282.335 17.792 282.707 19.304 282.707 21.08C282.707 22.856 282.347 24.368 281.627 25.616C280.931 26.864 279.971 27.812 278.747 28.46C277.547 29.108 276.215 29.432 274.751 29.432ZM274.751 27.848C275.927 27.848 276.827 27.296 277.451 26.192C278.099 25.088 278.423 23.408 278.423 21.152C278.423 18.848 278.099 17.132 277.451 16.004C276.827 14.876 275.927 14.312 274.751 14.312C272.279 14.312 271.043 16.592 271.043 21.152C271.043 25.616 272.279 27.848 274.751 27.848ZM291.193 29.432C289.825 29.432 288.721 28.988 287.881 28.1C287.065 27.212 286.681 25.688 286.729 23.528L286.837 14.708L287.701 15.536L284.677 14.888V13.592L290.401 12.908L290.833 13.268L290.653 17.912V23.348C290.653 24.62 290.845 25.496 291.229 25.976C291.637 26.456 292.201 26.696 292.921 26.696C293.689 26.696 294.457 26.468 295.225 26.012C296.017 25.532 296.749 24.896 297.421 24.104L298.033 25.508H297.493C296.629 26.828 295.657 27.812 294.577 28.46C293.521 29.108 292.393 29.432 291.193 29.432ZM297.097 29.288L296.737 25.436L296.845 15.32L294.757 14.888V13.664L300.373 12.908L300.805 13.268L300.697 17.912V27.236L302.713 27.668V29L297.097 29.288ZM304.797 29V27.668L308.217 27.02H310.269L313.653 27.668V29H304.797ZM306.885 29C306.909 28.496 306.921 27.836 306.921 27.02C306.945 26.18 306.957 25.316 306.957 24.428C306.981 23.516 306.993 22.724 306.993 22.052V20.324C306.993 19.412 306.981 18.692 306.957 18.164C306.957 17.612 306.933 17 306.885 16.328L304.545 16.04V14.78L310.017 12.692L310.593 13.016L310.917 17.156V22.052C310.917 22.724 310.917 23.516 310.917 24.428C310.941 25.316 310.953 26.18 310.953 27.02C310.977 27.836 311.001 28.496 311.025 29H306.885ZM310.845 19.892L310.089 17.588H310.737C311.169 16.028 311.841 14.828 312.753 13.988C313.689 13.124 314.613 12.692 315.525 12.692C316.125 12.692 316.665 12.848 317.145 13.16C317.649 13.448 317.985 13.88 318.153 14.456C318.129 15.296 317.925 15.932 317.541 16.364C317.181 16.796 316.665 17.012 315.993 17.012C315.177 17.012 314.421 16.628 313.725 15.86L312.825 14.888L314.301 14.924C312.645 15.908 311.493 17.564 310.845 19.892ZM338.661 29.432C336.333 29.432 334.449 28.712 333.009 27.272C331.569 25.808 330.849 23.78 330.849 21.188C330.849 19.436 331.221 17.924 331.965 16.652C332.733 15.38 333.729 14.408 334.953 13.736C336.177 13.04 337.485 12.692 338.877 12.692C340.821 12.692 342.381 13.304 343.557 14.528C344.757 15.728 345.357 17.336 345.357 19.352C345.357 20.12 345.285 20.72 345.141 21.152H332.577V19.604H339.633C340.425 19.604 340.953 19.448 341.217 19.136C341.481 18.8 341.613 18.332 341.613 17.732C341.613 16.7 341.325 15.872 340.749 15.248C340.173 14.6 339.477 14.276 338.661 14.276C338.061 14.276 337.485 14.48 336.933 14.888C336.381 15.296 335.913 15.98 335.529 16.94C335.169 17.876 334.989 19.136 334.989 20.72C334.989 22.76 335.457 24.296 336.393 25.328C337.329 26.336 338.517 26.84 339.957 26.84C340.941 26.84 341.769 26.66 342.441 26.3C343.137 25.916 343.761 25.412 344.313 24.788L345.249 25.652C343.953 28.172 341.757 29.432 338.661 29.432ZM346.965 29V27.668L349.809 27.164H350.709L353.409 27.668V29H346.965ZM347.829 29L354.849 19.892L356.073 20.648L350.097 29H347.829ZM355.389 29V27.668L359.385 27.02H360.429L364.101 27.668V29H355.389ZM356.217 21.908L355.101 21.044L360.753 13.16H363.057L356.217 21.908ZM358.521 29L353.985 22.196L348.081 13.16H352.509L356.793 19.604L363.057 29H358.521ZM347.109 14.528V13.16H355.389V14.528L352.221 15.068H350.601L347.109 14.528ZM357.585 14.528V13.16H363.597V14.528L360.969 15.032H360.105L357.585 14.528ZM365.366 29V27.668L368.75 27.02H370.298L373.538 27.668V29H365.366ZM367.454 29C367.478 28.496 367.502 27.836 367.526 27.02C367.55 26.18 367.562 25.316 367.562 24.428C367.562 23.516 367.562 22.724 367.562 22.052V7.796L365.186 7.472V6.212L371.054 4.736L371.558 5.024L371.45 9.704V16.508L371.522 16.94V22.052C371.522 22.724 371.522 23.516 371.522 24.428C371.546 25.316 371.558 26.18 371.558 27.02C371.582 27.836 371.606 28.496 371.63 29H367.454ZM375.554 29V27.668L378.866 27.02H380.414L383.69 27.668V29H375.554ZM377.606 29C377.63 28.496 377.642 27.836 377.642 27.02C377.666 26.204 377.678 25.352 377.678 24.464C377.702 23.552 377.714 22.748 377.714 22.052V18.956C377.714 17.636 377.534 16.724 377.174 16.22C376.838 15.692 376.25 15.428 375.41 15.428C374.69 15.428 373.97 15.632 373.25 16.04C372.53 16.448 371.75 17.072 370.91 17.912L370.442 16.256H370.91C372.782 13.88 374.846 12.692 377.102 12.692C378.542 12.692 379.658 13.172 380.45 14.132C381.242 15.068 381.638 16.556 381.638 18.596V22.052C381.638 22.748 381.638 23.552 381.638 24.464C381.662 25.352 381.674 26.204 381.674 27.02C381.698 27.836 381.722 28.496 381.746 29H377.606ZM385.618 29V27.668L388.966 27.02H390.55L393.862 27.668V29H385.618ZM387.742 29C387.766 28.496 387.778 27.836 387.778 27.02C387.802 26.18 387.814 25.316 387.814 24.428C387.838 23.516 387.85 22.724 387.85 22.052V20.504C387.85 19.592 387.838 18.836 387.814 18.236C387.814 17.636 387.79 17 387.742 16.328L385.366 16.04V14.78L391.306 12.692L391.846 13.016L391.738 17.696V22.052C391.738 22.724 391.738 23.516 391.738 24.428C391.762 25.316 391.774 26.18 391.774 27.02C391.798 27.836 391.822 28.496 391.846 29H387.742ZM389.794 9.596C389.074 9.596 388.474 9.38 387.994 8.948C387.514 8.492 387.274 7.928 387.274 7.256C387.274 6.536 387.514 5.96 387.994 5.528C388.474 5.096 389.074 4.88 389.794 4.88C390.466 4.88 391.042 5.096 391.522 5.528C392.002 5.96 392.242 6.536 392.242 7.256C392.242 7.928 392.002 8.492 391.522 8.948C391.042 9.38 390.466 9.596 389.794 9.596ZM395.67 29V27.668L397.83 27.272C397.854 26.456 397.866 25.568 397.866 24.608C397.866 23.648 397.866 22.796 397.866 22.052V7.796L395.49 7.472V6.212L401.358 4.736L401.862 5.024L401.754 9.704V15.428L401.826 15.86V26.48L401.25 29.396L395.67 29ZM406.146 29.432C405.09 29.432 404.118 29.192 403.23 28.712C402.342 28.208 401.526 27.32 400.782 26.048H400.134L400.458 24.176C401.97 26.168 403.482 27.164 404.994 27.164C406.074 27.164 406.998 26.672 407.766 25.688C408.534 24.704 408.918 23.18 408.918 21.116C408.918 19.076 408.558 17.552 407.838 16.544C407.142 15.536 406.23 15.032 405.102 15.032C404.358 15.032 403.59 15.308 402.798 15.86C402.03 16.388 401.214 17.096 400.35 17.984L400.026 15.968H400.962C401.826 14.84 402.726 14.012 403.662 13.484C404.622 12.956 405.63 12.692 406.686 12.692C407.886 12.692 408.966 13.016 409.926 13.664C410.886 14.288 411.642 15.212 412.194 16.436C412.77 17.66 413.058 19.16 413.058 20.936C413.058 22.664 412.746 24.164 412.122 25.436C411.498 26.708 410.658 27.692 409.602 28.388C408.57 29.084 407.418 29.432 406.146 29.432ZM415.36 29V27.668L418.708 27.02H420.292L423.604 27.668V29H415.36ZM417.484 29C417.508 28.496 417.52 27.836 417.52 27.02C417.544 26.18 417.556 25.316 417.556 24.428C417.58 23.516 417.592 22.724 417.592 22.052V20.504C417.592 19.592 417.58 18.836 417.556 18.236C417.556 17.636 417.532 17 417.484 16.328L415.108 16.04V14.78L421.048 12.692L421.588 13.016L421.48 17.696V22.052C421.48 22.724 421.48 23.516 421.48 24.428C421.504 25.316 421.516 26.18 421.516 27.02C421.54 27.836 421.564 28.496 421.588 29H417.484ZM419.536 9.596C418.816 9.596 418.216 9.38 417.736 8.948C417.256 8.492 417.016 7.928 417.016 7.256C417.016 6.536 417.256 5.96 417.736 5.528C418.216 5.096 418.816 4.88 419.536 4.88C420.208 4.88 420.784 5.096 421.264 5.528C421.744 5.96 421.984 6.536 421.984 7.256C421.984 7.928 421.744 8.492 421.264 8.948C420.784 9.38 420.208 9.596 419.536 9.596ZM431.425 29.432C430.129 29.432 429.097 29.108 428.329 28.46C427.585 27.812 427.213 26.768 427.213 25.328C427.213 24.848 427.213 24.38 427.213 23.924C427.237 23.468 427.249 22.916 427.249 22.268V15.176H424.801V13.484L428.797 12.944L427.213 14.132L428.725 8.588H431.389L431.209 13.808V14.456V24.968C431.209 25.784 431.365 26.384 431.677 26.768C432.013 27.128 432.445 27.308 432.973 27.308C433.573 27.308 434.245 27.032 434.989 26.48L435.781 27.344C434.941 28.736 433.489 29.432 431.425 29.432ZM429.265 15.176V13.16H435.241V15.176H429.265ZM436.806 29V27.668L440.154 27.02H441.738L445.05 27.668V29H436.806ZM438.93 29C438.954 28.496 438.966 27.836 438.966 27.02C438.99 26.18 439.002 25.316 439.002 24.428C439.026 23.516 439.038 22.724 439.038 22.052V20.504C439.038 19.592 439.026 18.836 439.002 18.236C439.002 17.636 438.978 17 438.93 16.328L436.554 16.04V14.78L442.494 12.692L443.034 13.016L442.926 17.696V22.052C442.926 22.724 442.926 23.516 442.926 24.428C442.95 25.316 442.962 26.18 442.962 27.02C442.986 27.836 443.01 28.496 443.034 29H438.93ZM440.982 9.596C440.262 9.596 439.662 9.38 439.182 8.948C438.702 8.492 438.462 7.928 438.462 7.256C438.462 6.536 438.702 5.96 439.182 5.528C439.662 5.096 440.262 4.88 440.982 4.88C441.654 4.88 442.23 5.096 442.71 5.528C443.19 5.96 443.43 6.536 443.43 7.256C443.43 7.928 443.19 8.492 442.71 8.948C442.23 9.38 441.654 9.596 440.982 9.596ZM455.138 29.432C453.65 29.432 452.294 29.108 451.07 28.46C449.87 27.788 448.91 26.84 448.19 25.616C447.494 24.368 447.146 22.856 447.146 21.08C447.146 19.328 447.506 17.828 448.226 16.58C448.97 15.308 449.942 14.348 451.142 13.7C452.366 13.028 453.698 12.692 455.138 12.692C456.53 12.692 457.826 13.028 459.026 13.7C460.25 14.348 461.234 15.296 461.978 16.544C462.722 17.792 463.094 19.304 463.094 21.08C463.094 22.856 462.734 24.368 462.014 25.616C461.318 26.864 460.358 27.812 459.134 28.46C457.934 29.108 456.602 29.432 455.138 29.432ZM455.138 27.848C456.314 27.848 457.214 27.296 457.838 26.192C458.486 25.088 458.81 23.408 458.81 21.152C458.81 18.848 458.486 17.132 457.838 16.004C457.214 14.876 456.314 14.312 455.138 14.312C452.666 14.312 451.43 16.592 451.43 21.152C451.43 25.616 452.666 27.848 455.138 27.848ZM477.592 29C477.616 28.496 477.628 27.836 477.628 27.02C477.652 26.204 477.664 25.352 477.664 24.464C477.688 23.552 477.7 22.748 477.7 22.052V18.956C477.7 17.636 477.52 16.724 477.16 16.22C476.8 15.692 476.212 15.428 475.396 15.428C474.004 15.428 472.492 16.22 470.86 17.804L470.572 16.112H471.076C472.852 13.832 474.88 12.692 477.16 12.692C478.576 12.692 479.68 13.172 480.472 14.132C481.264 15.068 481.66 16.556 481.66 18.596V22.052C481.66 22.748 481.66 23.552 481.66 24.464C481.66 25.352 481.672 26.204 481.696 27.02C481.72 27.836 481.744 28.496 481.768 29H477.592ZM465.46 29V27.668L468.844 27.02H470.428L473.632 27.668V29H465.46ZM467.584 29C467.608 28.496 467.62 27.836 467.62 27.02C467.644 26.18 467.656 25.316 467.656 24.428C467.68 23.516 467.692 22.724 467.692 22.052V20.324C467.692 19.412 467.68 18.692 467.656 18.164C467.656 17.612 467.632 17 467.584 16.328L465.244 16.04V14.78L470.716 12.692L471.292 13.016L471.616 16.796V22.052C471.616 22.724 471.616 23.516 471.616 24.428C471.64 25.316 471.652 26.18 471.652 27.02C471.676 27.836 471.7 28.496 471.724 29H467.584ZM475.54 29V27.668L478.852 27.02H480.436L483.676 27.668V29H475.54Z" fill="#FF5050"/>
<path d="M1.728 72V69.984L7.776 69.312H9.216L15.264 69.984V72H1.728ZM5.376 72C5.44 69.792 5.472 67.552 5.472 65.28C5.504 62.976 5.52 60.656 5.52 58.32V56.4C5.52 54.128 5.504 51.856 5.472 49.584C5.472 47.28 5.44 44.992 5.376 42.72H11.328C11.232 44.96 11.184 47.232 11.184 49.536C11.184 51.808 11.184 54.096 11.184 56.4V57.984C11.184 60.416 11.184 62.8 11.184 65.136C11.184 67.44 11.232 69.728 11.328 72H5.376ZM8.352 58.128V55.824H18.432V58.128H8.352ZM17.712 62.4L17.088 57.696V56.448L17.712 51.936H19.968V62.4H17.712ZM1.728 44.784V42.72H8.352V45.408H7.776L1.728 44.784ZM21.312 50.448L20.16 43.728L21.696 45.072H8.352V42.72H24.096L24.384 50.448H21.312ZM37.5949 72.576C34.4909 72.576 31.9789 71.616 30.0589 69.696C28.1389 67.744 27.1789 65.04 27.1789 61.584C27.1789 59.248 27.6749 57.232 28.6669 55.536C29.6909 53.84 31.0189 52.544 32.6509 51.648C34.2829 50.72 36.0269 50.256 37.8829 50.256C40.4749 50.256 42.5549 51.072 44.1229 52.704C45.7229 54.304 46.5229 56.448 46.5229 59.136C46.5229 60.16 46.4269 60.96 46.2349 61.536H29.4829V59.472H38.8909C39.9469 59.472 40.6509 59.264 41.0029 58.848C41.3549 58.4 41.5309 57.776 41.5309 56.976C41.5309 55.6 41.1469 54.496 40.3789 53.664C39.6109 52.8 38.6829 52.368 37.5949 52.368C36.7949 52.368 36.0269 52.64 35.2909 53.184C34.5549 53.728 33.9309 54.64 33.4189 55.92C32.9389 57.168 32.6989 58.848 32.6989 60.96C32.6989 63.68 33.3229 65.728 34.5709 67.104C35.8189 68.448 37.4029 69.12 39.3229 69.12C40.6349 69.12 41.7389 68.88 42.6349 68.4C43.5629 67.888 44.3949 67.216 45.1309 66.384L46.3789 67.536C44.6509 70.896 41.7229 72.576 37.5949 72.576ZM60.2824 72.576C57.1784 72.576 54.6664 71.616 52.7464 69.696C50.8264 67.744 49.8664 65.04 49.8664 61.584C49.8664 59.248 50.3624 57.232 51.3544 55.536C52.3784 53.84 53.7064 52.544 55.3384 51.648C56.9704 50.72 58.7144 50.256 60.5704 50.256C63.1624 50.256 65.2424 51.072 66.8104 52.704C68.4104 54.304 69.2104 56.448 69.2104 59.136C69.2104 60.16 69.1144 60.96 68.9224 61.536H52.1704V59.472H61.5784C62.6344 59.472 63.3384 59.264 63.6904 58.848C64.0424 58.4 64.2184 57.776 64.2184 56.976C64.2184 55.6 63.8344 54.496 63.0664 53.664C62.2984 52.8 61.3704 52.368 60.2824 52.368C59.4824 52.368 58.7144 52.64 57.9784 53.184C57.2424 53.728 56.6184 54.64 56.1064 55.92C55.6264 57.168 55.3864 58.848 55.3864 60.96C55.3864 63.68 56.0104 65.728 57.2584 67.104C58.5064 68.448 60.0904 69.12 62.0104 69.12C63.3224 69.12 64.4264 68.88 65.3224 68.4C66.2504 67.888 67.0824 67.216 67.8184 66.384L69.0664 67.536C67.3384 70.896 64.4104 72.576 60.2824 72.576ZM72.0259 72V70.224L76.6339 69.36H78.7459L83.4979 70.224V72H72.0259ZM74.9539 72C75.0499 68.928 75.0979 65.84 75.0979 62.736V43.728L71.9299 43.296V41.616L79.8979 39.648L80.5699 40.032L80.3779 46.272V62.736C80.3779 65.84 80.4259 68.928 80.5219 72H74.9539ZM101.143 72V70.224L105.847 69.36H108.487L113.287 70.224V72H101.143ZM104.119 72C104.151 70.464 104.183 68.928 104.215 67.392C104.247 65.856 104.263 64.304 104.263 62.736V53.568H100.951V51.312L106.039 50.64L104.263 51.6L104.311 51.12C104.503 48.848 104.839 47.024 105.319 45.648C105.799 44.272 106.583 43.04 107.671 41.952C108.695 40.96 109.799 40.256 110.983 39.84C112.167 39.392 113.319 39.168 114.439 39.168C115.559 39.168 116.567 39.376 117.463 39.792C118.359 40.208 118.919 40.912 119.143 41.904C119.111 42.64 118.839 43.248 118.327 43.728C117.847 44.176 117.159 44.4 116.263 44.4C115.015 44.4 113.831 43.664 112.711 42.192L111.079 40.608L115.111 39.696L115.879 40.992C115.623 40.864 115.351 40.752 115.063 40.656C114.775 40.528 114.503 40.464 114.247 40.464C113.287 40.464 112.391 40.864 111.559 41.664C110.663 42.56 110.039 43.888 109.687 45.648C109.367 47.376 109.303 49.776 109.495 52.848V62.736C109.495 65.84 109.543 68.928 109.639 72H104.119ZM106.855 53.568V50.88H114.823V53.568H106.855ZM117.036 72V70.224L121.596 69.36H124.332L128.844 70.224V72H117.036ZM119.82 72C119.852 71.328 119.868 70.448 119.868 69.36C119.9 68.24 119.916 67.088 119.916 65.904C119.948 64.688 119.964 63.632 119.964 62.736V60.432C119.964 59.216 119.948 58.256 119.916 57.552C119.916 56.816 119.884 56 119.82 55.104L116.7 54.72V53.04L123.996 50.256L124.764 50.688L125.196 56.208V62.736C125.196 63.632 125.196 64.688 125.196 65.904C125.228 67.088 125.244 68.24 125.244 69.36C125.276 70.448 125.308 71.328 125.34 72H119.82ZM125.1 59.856L124.092 56.784H124.956C125.532 54.704 126.428 53.104 127.644 51.984C128.892 50.832 130.124 50.256 131.34 50.256C132.14 50.256 132.86 50.464 133.5 50.88C134.172 51.264 134.62 51.84 134.844 52.608C134.812 53.728 134.54 54.576 134.028 55.152C133.548 55.728 132.86 56.016 131.964 56.016C130.876 56.016 129.868 55.504 128.94 54.48L127.74 53.184L129.708 53.232C127.5 54.544 125.964 56.752 125.1 59.856ZM147.048 72.576C143.944 72.576 141.432 71.616 139.512 69.696C137.592 67.744 136.632 65.04 136.632 61.584C136.632 59.248 137.128 57.232 138.12 55.536C139.144 53.84 140.472 52.544 142.104 51.648C143.736 50.72 145.48 50.256 147.336 50.256C149.928 50.256 152.008 51.072 153.576 52.704C155.176 54.304 155.976 56.448 155.976 59.136C155.976 60.16 155.88 60.96 155.688 61.536H138.936V59.472H148.344C149.4 59.472 150.104 59.264 150.456 58.848C150.808 58.4 150.984 57.776 150.984 56.976C150.984 55.6 150.6 54.496 149.832 53.664C149.064 52.8 148.136 52.368 147.048 52.368C146.248 52.368 145.48 52.64 144.744 53.184C144.008 53.728 143.384 54.64 142.872 55.92C142.392 57.168 142.152 58.848 142.152 60.96C142.152 63.68 142.776 65.728 144.024 67.104C145.272 68.448 146.856 69.12 148.776 69.12C150.088 69.12 151.192 68.88 152.088 68.4C153.016 67.888 153.848 67.216 154.584 66.384L155.832 67.536C154.104 70.896 151.176 72.576 147.048 72.576ZM169.736 72.576C166.632 72.576 164.12 71.616 162.2 69.696C160.28 67.744 159.32 65.04 159.32 61.584C159.32 59.248 159.816 57.232 160.808 55.536C161.832 53.84 163.16 52.544 164.792 51.648C166.424 50.72 168.168 50.256 170.023 50.256C172.616 50.256 174.696 51.072 176.264 52.704C177.864 54.304 178.664 56.448 178.664 59.136C178.664 60.16 178.568 60.96 178.376 61.536H161.624V59.472H171.032C172.088 59.472 172.792 59.264 173.144 58.848C173.496 58.4 173.672 57.776 173.672 56.976C173.672 55.6 173.288 54.496 172.52 53.664C171.752 52.8 170.824 52.368 169.736 52.368C168.936 52.368 168.168 52.64 167.432 53.184C166.696 53.728 166.072 54.64 165.56 55.92C165.08 57.168 164.84 58.848 164.84 60.96C164.84 63.68 165.464 65.728 166.712 67.104C167.96 68.448 169.544 69.12 171.464 69.12C172.776 69.12 173.88 68.88 174.776 68.4C175.704 67.888 176.536 67.216 177.272 66.384L178.52 67.536C176.792 70.896 173.864 72.576 169.736 72.576ZM204.78 72.576C203.052 72.576 201.676 72.144 200.652 71.28C199.66 70.416 199.164 69.024 199.164 67.104C199.164 66.464 199.164 65.84 199.164 65.232C199.196 64.624 199.212 63.888 199.212 63.024V53.568H195.948V51.312L201.276 50.592L199.164 52.176L201.18 44.784H204.732L204.492 51.744V52.608V66.624C204.492 67.712 204.7 68.512 205.116 69.024C205.564 69.504 206.14 69.744 206.844 69.744C207.644 69.744 208.54 69.376 209.532 68.64L210.588 69.792C209.468 71.648 207.532 72.576 204.78 72.576ZM201.9 53.568V50.88H209.868V53.568H201.9ZM222.851 72.576C220.867 72.576 219.059 72.144 217.427 71.28C215.827 70.384 214.547 69.12 213.587 67.488C212.659 65.824 212.195 63.808 212.195 61.44C212.195 59.104 212.675 57.104 213.635 55.44C214.627 53.744 215.923 52.464 217.523 51.6C219.155 50.704 220.931 50.256 222.851 50.256C224.707 50.256 226.435 50.704 228.035 51.6C229.667 52.464 230.979 53.728 231.971 55.392C232.963 57.056 233.459 59.072 233.459 61.44C233.459 63.808 232.979 65.824 232.019 67.488C231.091 69.152 229.811 70.416 228.179 71.28C226.579 72.144 224.803 72.576 222.851 72.576ZM222.851 70.464C224.419 70.464 225.619 69.728 226.451 68.256C227.315 66.784 227.747 64.544 227.747 61.536C227.747 58.464 227.315 56.176 226.451 54.672C225.619 53.168 224.419 52.416 222.851 52.416C219.555 52.416 217.907 55.456 217.907 61.536C217.907 67.488 219.555 70.464 222.851 70.464ZM259.914 72.576C258.09 72.576 256.618 71.984 255.498 70.8C254.41 69.616 253.898 67.584 253.962 64.704L254.106 52.944L255.258 54.048L251.226 53.184V51.456L258.858 50.544L259.434 51.024L259.194 57.216V64.464C259.194 66.16 259.45 67.328 259.962 67.968C260.506 68.608 261.258 68.928 262.218 68.928C263.242 68.928 264.266 68.624 265.29 68.016C266.346 67.376 267.322 66.528 268.218 65.472L269.034 67.344H268.314C267.162 69.104 265.866 70.416 264.426 71.28C263.018 72.144 261.514 72.576 259.914 72.576ZM267.786 72.384L267.306 67.248L267.45 53.76L264.666 53.184V51.552L272.154 50.544L272.73 51.024L272.586 57.216V69.648L275.274 70.224V72L267.786 72.384ZM285.396 72.576C284.052 72.576 282.82 72.432 281.7 72.144C280.58 71.856 279.46 71.408 278.34 70.8L278.292 65.664H281.22L282.324 71.232L279.972 70.32V68.64C280.836 69.248 281.7 69.696 282.564 69.984C283.428 70.272 284.388 70.416 285.444 70.416C286.948 70.416 288.068 70.16 288.804 69.648C289.572 69.104 289.956 68.368 289.956 67.44C289.956 66.608 289.652 65.936 289.044 65.424C288.468 64.88 287.46 64.368 286.02 63.888L283.86 63.168C282.196 62.624 280.884 61.856 279.924 60.864C278.964 59.84 278.484 58.528 278.484 56.928C278.484 55.104 279.204 53.536 280.644 52.224C282.084 50.912 284.164 50.256 286.884 50.256C288.132 50.256 289.268 50.416 290.292 50.736C291.348 51.056 292.404 51.504 293.46 52.08L293.22 56.688H290.34L289.236 51.744L291.252 52.656V54C290.516 53.488 289.812 53.104 289.14 52.848C288.468 52.592 287.668 52.464 286.74 52.464C285.588 52.464 284.676 52.72 284.004 53.232C283.364 53.712 283.044 54.384 283.044 55.248C283.044 56.048 283.316 56.688 283.86 57.168C284.404 57.648 285.428 58.144 286.932 58.656L288.708 59.184C290.852 59.92 292.372 60.848 293.268 61.968C294.196 63.056 294.66 64.336 294.66 65.808C294.66 67.792 293.86 69.424 292.26 70.704C290.66 71.952 288.372 72.576 285.396 72.576ZM308.157 72.576C305.053 72.576 302.541 71.616 300.621 69.696C298.701 67.744 297.741 65.04 297.741 61.584C297.741 59.248 298.237 57.232 299.229 55.536C300.253 53.84 301.581 52.544 303.213 51.648C304.845 50.72 306.589 50.256 308.445 50.256C311.037 50.256 313.117 51.072 314.685 52.704C316.285 54.304 317.085 56.448 317.085 59.136C317.085 60.16 316.989 60.96 316.797 61.536H300.045V59.472H309.453C310.509 59.472 311.213 59.264 311.565 58.848C311.917 58.4 312.093 57.776 312.093 56.976C312.093 55.6 311.709 54.496 310.941 53.664C310.173 52.8 309.245 52.368 308.157 52.368C307.357 52.368 306.589 52.64 305.853 53.184C305.117 53.728 304.493 54.64 303.981 55.92C303.501 57.168 303.261 58.848 303.261 60.96C303.261 63.68 303.885 65.728 305.133 67.104C306.381 68.448 307.965 69.12 309.885 69.12C311.197 69.12 312.301 68.88 313.197 68.4C314.125 67.888 314.957 67.216 315.693 66.384L316.941 67.536C315.213 70.896 312.285 72.576 308.157 72.576ZM343.202 72.576C341.474 72.576 340.098 72.144 339.074 71.28C338.082 70.416 337.586 69.024 337.586 67.104C337.586 66.464 337.586 65.84 337.586 65.232C337.618 64.624 337.634 63.888 337.634 63.024V53.568H334.37V51.312L339.698 50.592L337.586 52.176L339.602 44.784H343.154L342.914 51.744V52.608V66.624C342.914 67.712 343.122 68.512 343.538 69.024C343.986 69.504 344.562 69.744 345.266 69.744C346.066 69.744 346.962 69.376 347.954 68.64L349.01 69.792C347.89 71.648 345.954 72.576 343.202 72.576ZM340.322 53.568V50.88H348.29V53.568H340.322ZM350.232 72V70.224L354.744 69.36H356.808L361.128 70.224V72H350.232ZM353.016 72C353.048 71.328 353.08 70.448 353.112 69.36C353.144 68.24 353.16 67.088 353.16 65.904C353.16 64.688 353.16 63.632 353.16 62.736V43.728L349.992 43.296V41.616L357.816 39.648L358.488 40.032L358.344 46.272V55.344L358.44 55.92V62.736C358.44 63.632 358.44 64.688 358.44 65.904C358.472 67.088 358.488 68.24 358.488 69.36C358.52 70.448 358.552 71.328 358.584 72H353.016ZM363.816 72V70.224L368.232 69.36H370.296L374.664 70.224V72H363.816ZM366.552 72C366.584 71.328 366.6 70.448 366.6 69.36C366.632 68.272 366.648 67.136 366.648 65.952C366.68 64.736 366.696 63.664 366.696 62.736V58.608C366.696 56.848 366.456 55.632 365.976 54.96C365.528 54.256 364.744 53.904 363.624 53.904C362.664 53.904 361.704 54.176 360.744 54.72C359.784 55.264 358.744 56.096 357.624 57.216L357 55.008H357.624C360.12 51.84 362.872 50.256 365.88 50.256C367.8 50.256 369.288 50.896 370.344 52.176C371.4 53.424 371.928 55.408 371.928 58.128V62.736C371.928 63.664 371.928 64.736 371.928 65.952C371.96 67.136 371.976 68.272 371.976 69.36C372.008 70.448 372.04 71.328 372.072 72H366.552ZM387.892 72.576C384.788 72.576 382.276 71.616 380.356 69.696C378.436 67.744 377.476 65.04 377.476 61.584C377.476 59.248 377.972 57.232 378.964 55.536C379.988 53.84 381.316 52.544 382.948 51.648C384.58 50.72 386.324 50.256 388.18 50.256C390.772 50.256 392.852 51.072 394.42 52.704C396.02 54.304 396.82 56.448 396.82 59.136C396.82 60.16 396.724 60.96 396.532 61.536H379.78V59.472H389.188C390.244 59.472 390.948 59.264 391.3 58.848C391.652 58.4 391.828 57.776 391.828 56.976C391.828 55.6 391.444 54.496 390.676 53.664C389.908 52.8 388.98 52.368 387.892 52.368C387.092 52.368 386.324 52.64 385.588 53.184C384.852 53.728 384.228 54.64 383.716 55.92C383.236 57.168 382.996 58.848 382.996 60.96C382.996 63.68 383.62 65.728 384.868 67.104C386.116 68.448 387.7 69.12 389.62 69.12C390.932 69.12 392.036 68.88 392.932 68.4C393.86 67.888 394.692 67.216 395.428 66.384L396.676 67.536C394.948 70.896 392.02 72.576 387.892 72.576ZM425.672 72.576C423.656 72.576 421.864 72.144 420.296 71.28C418.728 70.416 417.496 69.168 416.6 67.536C415.704 65.872 415.256 63.856 415.256 61.488C415.256 59.152 415.752 57.152 416.744 55.488C417.768 53.792 419.112 52.496 420.776 51.6C422.44 50.704 424.248 50.256 426.2 50.256C427.64 50.256 428.936 50.528 430.088 51.072C431.24 51.616 432.184 52.352 432.92 53.28C433.656 54.176 434.088 55.2 434.216 56.352C433.864 57.632 433.032 58.272 431.72 58.272C430.088 58.272 429.16 57.248 428.936 55.2L428.12 51.696L430.76 53.424C429.384 52.72 428.008 52.368 426.632 52.368C425.064 52.368 423.688 53.072 422.504 54.48C421.32 55.856 420.728 58 420.728 60.912C420.728 63.568 421.336 65.6 422.552 67.008C423.768 68.416 425.384 69.12 427.4 69.12C428.552 69.12 429.608 68.864 430.568 68.352C431.528 67.84 432.312 67.12 432.92 66.192L434.264 67.152C433.528 68.944 432.424 70.304 430.952 71.232C429.512 72.128 427.752 72.576 425.672 72.576ZM443.192 72.576C441.528 72.576 440.136 72.112 439.016 71.184C437.928 70.256 437.384 68.88 437.384 67.056C437.384 66.128 437.592 65.264 438.008 64.464C438.424 63.664 439.192 62.912 440.312 62.208C441.464 61.472 443.096 60.752 445.208 60.048C446.136 59.76 447.256 59.44 448.568 59.088C449.88 58.736 451.08 58.448 452.168 58.224V59.952C451.144 60.208 450.072 60.496 448.952 60.816C447.832 61.136 446.968 61.424 446.36 61.68C444.856 62.288 443.832 62.992 443.288 63.792C442.744 64.56 442.472 65.36 442.472 66.192C442.472 67.312 442.76 68.144 443.336 68.688C443.944 69.2 444.68 69.456 445.544 69.456C445.96 69.456 446.36 69.392 446.744 69.264C447.16 69.104 447.688 68.816 448.328 68.4C448.968 67.952 449.864 67.312 451.016 66.48L451.544 68.88H450.008C448.792 70.128 447.72 71.056 446.792 71.664C445.864 72.272 444.664 72.576 443.192 72.576ZM453.944 72.528C452.6 72.528 451.528 72.144 450.728 71.376C449.96 70.608 449.528 69.552 449.432 68.208V57.648C449.432 55.568 449.144 54.176 448.568 53.472C448.024 52.736 447.032 52.368 445.592 52.368C445.08 52.368 444.488 52.416 443.816 52.512C443.176 52.608 442.424 52.8 441.56 53.088L443.912 51.552L443.192 55.008C443.064 56.064 442.76 56.832 442.28 57.312C441.8 57.792 441.192 58.032 440.456 58.032C439.048 58.032 438.216 57.376 437.96 56.064C438.248 54.336 439.208 52.944 440.84 51.888C442.472 50.8 444.632 50.256 447.32 50.256C449.848 50.256 451.688 50.88 452.84 52.128C454.024 53.344 454.616 55.392 454.616 58.272V67.872C454.616 68.608 454.728 69.136 454.952 69.456C455.208 69.744 455.544 69.888 455.96 69.888C456.472 69.888 456.984 69.552 457.496 68.88L458.504 69.792C457.96 70.784 457.32 71.488 456.584 71.904C455.88 72.32 455 72.528 453.944 72.528ZM476.242 72C476.274 71.328 476.29 70.448 476.29 69.36C476.322 68.272 476.338 67.136 476.338 65.952C476.37 64.736 476.386 63.664 476.386 62.736V58.608C476.386 56.848 476.146 55.632 475.666 54.96C475.186 54.256 474.402 53.904 473.314 53.904C471.458 53.904 469.442 54.96 467.266 57.072L466.882 54.816H467.554C469.922 51.776 472.626 50.256 475.666 50.256C477.554 50.256 479.026 50.896 480.082 52.176C481.138 53.424 481.666 55.408 481.666 58.128V62.736C481.666 63.664 481.666 64.736 481.666 65.952C481.666 67.136 481.682 68.272 481.714 69.36C481.746 70.448 481.778 71.328 481.81 72H476.242ZM460.066 72V70.224L464.578 69.36H466.69L470.962 70.224V72H460.066ZM462.898 72C462.93 71.328 462.946 70.448 462.946 69.36C462.978 68.24 462.994 67.088 462.994 65.904C463.026 64.688 463.042 63.632 463.042 62.736V60.432C463.042 59.216 463.026 58.256 462.994 57.552C462.994 56.816 462.962 56 462.898 55.104L459.778 54.72V53.04L467.074 50.256L467.842 50.688L468.274 55.728V62.736C468.274 63.632 468.274 64.688 468.274 65.904C468.306 67.088 468.322 68.24 468.322 69.36C468.354 70.448 468.386 71.328 468.418 72H462.898ZM473.506 72V70.224L477.922 69.36H480.034L484.354 70.224V72H473.506ZM495.612 72.144L486.732 50.88H492.588L498.78 67.344H497.868L503.58 50.88H506.268L498.156 72.144H495.612ZM485.34 52.704V50.88H496.86V52.704L492.156 53.472H489.468L485.34 52.704ZM499.5 52.704V50.88H507.852V52.704L504.492 53.424H503.58L499.5 52.704ZM515.755 72.576C514.091 72.576 512.699 72.112 511.579 71.184C510.491 70.256 509.947 68.88 509.947 67.056C509.947 66.128 510.155 65.264 510.571 64.464C510.987 63.664 511.755 62.912 512.875 62.208C514.027 61.472 515.659 60.752 517.771 60.048C518.699 59.76 519.819 59.44 521.131 59.088C522.443 58.736 523.643 58.448 524.731 58.224V59.952C523.707 60.208 522.635 60.496 521.515 60.816C520.395 61.136 519.531 61.424 518.923 61.68C517.419 62.288 516.395 62.992 515.851 63.792C515.307 64.56 515.035 65.36 515.035 66.192C515.035 67.312 515.323 68.144 515.899 68.688C516.507 69.2 517.243 69.456 518.107 69.456C518.523 69.456 518.923 69.392 519.307 69.264C519.723 69.104 520.251 68.816 520.891 68.4C521.531 67.952 522.427 67.312 523.579 66.48L524.107 68.88H522.571C521.355 70.128 520.283 71.056 519.355 71.664C518.427 72.272 517.227 72.576 515.755 72.576ZM526.507 72.528C525.163 72.528 524.091 72.144 523.291 71.376C522.523 70.608 522.091 69.552 521.995 68.208V57.648C521.995 55.568 521.707 54.176 521.131 53.472C520.587 52.736 519.595 52.368 518.155 52.368C517.643 52.368 517.051 52.416 516.379 52.512C515.739 52.608 514.987 52.8 514.123 53.088L516.475 51.552L515.755 55.008C515.627 56.064 515.323 56.832 514.843 57.312C514.363 57.792 513.755 58.032 513.019 58.032C511.611 58.032 510.779 57.376 510.523 56.064C510.811 54.336 511.771 52.944 513.403 51.888C515.035 50.8 517.195 50.256 519.883 50.256C522.411 50.256 524.251 50.88 525.403 52.128C526.587 53.344 527.179 55.392 527.179 58.272V67.872C527.179 68.608 527.291 69.136 527.515 69.456C527.771 69.744 528.107 69.888 528.523 69.888C529.035 69.888 529.547 69.552 530.059 68.88L531.067 69.792C530.523 70.784 529.883 71.488 529.147 71.904C528.443 72.32 527.563 72.528 526.507 72.528ZM540.021 72.576C538.677 72.576 537.445 72.432 536.325 72.144C535.205 71.856 534.085 71.408 532.965 70.8L532.917 65.664H535.845L536.949 71.232L534.597 70.32V68.64C535.461 69.248 536.325 69.696 537.189 69.984C538.053 70.272 539.013 70.416 540.069 70.416C541.573 70.416 542.693 70.16 543.429 69.648C544.197 69.104 544.581 68.368 544.581 67.44C544.581 66.608 544.277 65.936 543.669 65.424C543.093 64.88 542.085 64.368 540.645 63.888L538.485 63.168C536.821 62.624 535.509 61.856 534.549 60.864C533.589 59.84 533.109 58.528 533.109 56.928C533.109 55.104 533.829 53.536 535.269 52.224C536.709 50.912 538.789 50.256 541.509 50.256C542.757 50.256 543.893 50.416 544.917 50.736C545.973 51.056 547.029 51.504 548.085 52.08L547.845 56.688H544.965L543.861 51.744L545.877 52.656V54C545.141 53.488 544.437 53.104 543.765 52.848C543.093 52.592 542.293 52.464 541.365 52.464C540.213 52.464 539.301 52.72 538.629 53.232C537.989 53.712 537.669 54.384 537.669 55.248C537.669 56.048 537.941 56.688 538.485 57.168C539.029 57.648 540.053 58.144 541.557 58.656L543.333 59.184C545.477 59.92 546.997 60.848 547.893 61.968C548.821 63.056 549.285 64.336 549.285 65.808C549.285 67.792 548.485 69.424 546.885 70.704C545.285 71.952 542.997 72.576 540.021 72.576ZM557.694 72.432C556.702 72.432 555.854 72.112 555.15 71.472C554.478 70.8 554.142 69.968 554.142 68.976C554.142 68.016 554.478 67.2 555.15 66.528C555.854 65.824 556.702 65.472 557.694 65.472C558.686 65.472 559.518 65.824 560.19 66.528C560.862 67.2 561.198 68.016 561.198 68.976C561.198 69.968 560.862 70.8 560.19 71.472C559.518 72.112 558.686 72.432 557.694 72.432ZM559.854 62.304H555.438L554.478 45.024H560.718L559.854 62.304Z" fill="#FF5050"/>
</svg>
