<svg width="302" height="21" viewBox="0 0 302 21" fill="none" xmlns="http://www.w3.org/2000/svg">
<path d="M6.46 16.32C5.71333 16.32 4.99333 16.1867 4.3 15.92C3.62 15.6533 3.00667 15.2533 2.46 14.72C1.91333 14.1867 1.48 13.52 1.16 12.72C0.84 11.92 0.68 10.9867 0.68 9.92C0.68 8.88 0.84 7.96 1.16 7.16C1.48 6.36 1.91333 5.69333 2.46 5.16C3.00667 4.61333 3.62667 4.20667 4.32 3.94C5.01333 3.66 5.72667 3.52 6.46 3.52C7.20667 3.52 7.92 3.65333 8.6 3.92C9.29333 4.18667 9.90667 4.58667 10.44 5.12C10.9867 5.65333 11.42 6.32 11.74 7.12C12.06 7.92 12.22 8.85333 12.22 9.92C12.22 10.96 12.06 11.88 11.74 12.68C11.4333 13.48 11.0067 14.1533 10.46 14.7C9.91333 15.2333 9.29333 15.64 8.6 15.92C7.92 16.1867 7.20667 16.32 6.46 16.32ZM6.46 15.32C7.15333 15.32 7.71333 15.08 8.14 14.6C8.58 14.1067 8.9 13.4533 9.1 12.64C9.3 11.8133 9.4 10.9067 9.4 9.92C9.4 8.93333 9.3 8.03333 9.1 7.22C8.9 6.40667 8.58 5.76 8.14 5.28C7.71333 4.78667 7.15333 4.54 6.46 4.54C5.76667 4.54 5.2 4.78667 4.76 5.28C4.33333 5.76 4.02 6.40667 3.82 7.22C3.62 8.03333 3.52 8.93333 3.52 9.92C3.52 10.9067 3.62 11.8133 3.82 12.64C4.02 13.4533 4.33333 14.1067 4.76 14.6C5.2 15.08 5.76667 15.32 6.46 15.32ZM13.5097 16V15.22L15.3497 14.86H16.8097L18.6297 15.22V16H13.5097ZM14.6097 16C14.623 15.72 14.6297 15.3533 14.6297 14.9C14.643 14.4333 14.6497 13.9533 14.6497 13.46C14.663 12.9533 14.6697 12.5133 14.6697 12.14V11.14C14.6697 10.6333 14.663 10.24 14.6497 9.96C14.6497 9.66667 14.6364 9.33333 14.6097 8.96L13.3697 8.8V8.08L16.6297 6.9L16.9497 7.08L17.1297 9.36V12.14C17.1297 12.5133 17.1297 12.9533 17.1297 13.46C17.143 13.9533 17.1497 14.4333 17.1497 14.9C17.163 15.3533 17.1764 15.72 17.1897 16H14.6097ZM17.0897 10.94L16.5897 9.68H17.0097C17.2497 8.77333 17.623 8.08667 18.1297 7.62C18.6497 7.14 19.1564 6.9 19.6497 6.9C20.0097 6.9 20.3297 6.99333 20.6097 7.18C20.8897 7.36667 21.0764 7.64667 21.1697 8.02C21.1564 8.48667 21.0364 8.84667 20.8097 9.1C20.5964 9.35333 20.303 9.48 19.9297 9.48C19.4497 9.48 19.0097 9.24 18.6097 8.76L18.0897 8.16L18.8897 8.26C18.4764 8.51333 18.1097 8.87333 17.7897 9.34C17.483 9.80667 17.2497 10.34 17.0897 10.94ZM25.5109 20.24C24.5376 20.24 23.7643 20.14 23.1909 19.94C22.6309 19.74 22.2243 19.4733 21.9709 19.14C21.7309 18.8067 21.6109 18.4467 21.6109 18.06C21.6109 17.6067 21.7776 17.2 22.1109 16.84C22.4443 16.4933 22.9976 16.1733 23.7709 15.88L23.9909 16C23.7509 16.3067 23.5709 16.5733 23.4509 16.8C23.3443 17.04 23.2909 17.3133 23.2909 17.62C23.2909 18.1933 23.4976 18.6 23.9109 18.84C24.3243 19.0933 24.9309 19.22 25.7309 19.22C26.6776 19.22 27.3909 19.0667 27.8709 18.76C28.3643 18.4667 28.6109 18.1067 28.6109 17.68C28.6109 17.36 28.4976 17.08 28.2709 16.84C28.0443 16.6 27.6576 16.48 27.1109 16.48H25.1109C24.7776 16.48 24.4709 16.4667 24.1909 16.44C23.9109 16.4133 23.6709 16.36 23.4709 16.28V16.2C23.0043 16.0667 22.6576 15.8667 22.4309 15.6C22.2176 15.3333 22.1109 15.02 22.1109 14.66C22.1109 14.26 22.2376 13.8667 22.4909 13.48C22.7443 13.0933 23.1309 12.68 23.6509 12.24V12.04L24.3509 12.34C24.1643 12.5533 24.0243 12.7533 23.9309 12.94C23.8509 13.1267 23.8109 13.3467 23.8109 13.6C23.8109 13.8133 23.8843 13.9933 24.0309 14.14C24.1909 14.2733 24.4776 14.34 24.8909 14.34H27.1309C28.3976 14.34 29.2976 14.5733 29.8309 15.04C30.3643 15.4933 30.6309 16.1133 30.6309 16.9C30.6309 17.4867 30.4376 18.0333 30.0509 18.54C29.6643 19.06 29.0909 19.4733 28.3309 19.78C27.5709 20.0867 26.6309 20.24 25.5109 20.24ZM25.6909 12.86C24.4909 12.86 23.5776 12.5933 22.9509 12.06C22.3243 11.5133 22.0109 10.7933 22.0109 9.9C22.0109 9.00667 22.3243 8.28667 22.9509 7.74C23.5909 7.18 24.5043 6.9 25.6909 6.9C26.8909 6.9 27.8043 7.17333 28.4309 7.72C29.0576 8.25333 29.3709 8.98 29.3709 9.9C29.3709 10.7667 29.0509 11.48 28.4109 12.04C27.7843 12.5867 26.8776 12.86 25.6909 12.86ZM25.6509 12.04C26.1443 12.04 26.5176 11.84 26.7709 11.44C27.0243 11.04 27.1509 10.5067 27.1509 9.84C27.1509 9.2 27.0243 8.68667 26.7709 8.3C26.5309 7.91333 26.1776 7.72 25.7109 7.72C25.2443 7.72 24.8843 7.92 24.6309 8.32C24.3776 8.70667 24.2509 9.22667 24.2509 9.88C24.2509 10.5333 24.3643 11.06 24.5909 11.46C24.8309 11.8467 25.1843 12.04 25.6509 12.04ZM27.9909 8.4V7.82H28.1109L30.4909 6.88L30.7709 7.06V8.4H27.9909ZM34.1152 16.24C33.4085 16.24 32.8285 16.0467 32.3752 15.66C31.9218 15.2733 31.6952 14.7 31.6952 13.94C31.6952 13.5267 31.7885 13.1533 31.9752 12.82C32.1618 12.4733 32.4952 12.1533 32.9752 11.86C33.4685 11.5533 34.1685 11.2533 35.0752 10.96C35.4618 10.8533 35.9285 10.7267 36.4752 10.58C37.0352 10.42 37.5352 10.2933 37.9752 10.2V10.94C37.5618 11.0467 37.1218 11.1667 36.6552 11.3C36.2018 11.4333 35.8418 11.5533 35.5752 11.66C35.0285 11.8867 34.6352 12.16 34.3952 12.48C34.1552 12.8 34.0352 13.1467 34.0352 13.52C34.0352 13.9867 34.1552 14.3333 34.3952 14.56C34.6352 14.7733 34.9218 14.88 35.2552 14.88C35.4152 14.88 35.5685 14.8533 35.7152 14.8C35.8752 14.7467 36.0818 14.6333 36.3352 14.46C36.6018 14.2867 36.9618 14.0333 37.4152 13.7L37.6352 14.72H36.9352C36.6152 15.0533 36.3218 15.3333 36.0552 15.56C35.7885 15.7867 35.5018 15.9533 35.1952 16.06C34.9018 16.18 34.5418 16.24 34.1152 16.24ZM38.6552 16.22C38.0685 16.22 37.6085 16.0667 37.2752 15.76C36.9418 15.44 36.7485 15 36.6952 14.44V9.98C36.6952 9.12667 36.5818 8.55333 36.3552 8.26C36.1285 7.95333 35.7218 7.8 35.1352 7.8C34.9218 7.8 34.6818 7.82 34.4152 7.86C34.1485 7.9 33.8218 7.98 33.4352 8.1L34.5152 7.42L34.2752 8.8C34.2485 9.29333 34.1218 9.66 33.8952 9.9C33.6685 10.1267 33.3952 10.24 33.0752 10.24C32.4485 10.24 32.0752 9.95333 31.9552 9.38C32.0485 8.63333 32.4418 8.03333 33.1352 7.58C33.8285 7.12667 34.7752 6.9 35.9752 6.9C37.0818 6.9 37.8818 7.16 38.3752 7.68C38.8685 8.2 39.1152 9.06667 39.1152 10.28V14.34C39.1152 14.82 39.2818 15.06 39.6152 15.06C39.8018 15.06 40.0085 14.92 40.2352 14.64L40.6752 15C40.4618 15.4533 40.1885 15.7733 39.8552 15.96C39.5352 16.1333 39.1352 16.22 38.6552 16.22ZM47.9036 16C47.9169 15.72 47.9236 15.3533 47.9236 14.9C47.9369 14.4467 47.9436 13.9733 47.9436 13.48C47.9569 12.9733 47.9636 12.5267 47.9636 12.14V10.34C47.9636 9.66 47.8703 9.18667 47.6836 8.92C47.5103 8.65333 47.2103 8.52 46.7836 8.52C46.0236 8.52 45.2169 8.96 44.3636 9.84L44.2236 8.8H44.5636C45.0703 8.14667 45.5969 7.66667 46.1436 7.36C46.6903 7.05333 47.2703 6.9 47.8836 6.9C48.6703 6.9 49.2903 7.16667 49.7436 7.7C50.2103 8.22 50.4436 9.03333 50.4436 10.14V12.14C50.4436 12.5267 50.4436 12.9733 50.4436 13.48C50.4569 13.9733 50.4636 14.4467 50.4636 14.9C50.4769 15.3533 50.4903 15.72 50.5036 16H47.9036ZM41.2636 16V15.22L43.0636 14.86H44.1436L45.9236 15.22V16H41.2636ZM42.3636 16C42.3769 15.72 42.3836 15.3533 42.3836 14.9C42.3969 14.4333 42.4036 13.9533 42.4036 13.46C42.4169 12.9533 42.4236 12.5133 42.4236 12.14V11.14C42.4236 10.6333 42.4169 10.24 42.4036 9.96C42.4036 9.66667 42.3903 9.33333 42.3636 8.96L41.1236 8.8V8.08L44.3836 6.9L44.7036 7.08L44.8836 9.16V12.14C44.8836 12.5133 44.8836 12.9533 44.8836 13.46C44.8969 13.9533 44.9036 14.4333 44.9036 14.9C44.9169 15.3533 44.9303 15.72 44.9436 16H42.3636ZM46.8636 16V15.22L48.6236 14.86H49.7036L51.5036 15.22V16H46.8636ZM52.5131 16V15.22L54.3131 14.86H55.3931L57.2131 15.22V16H52.5131ZM53.6131 16C53.6265 15.72 53.6331 15.3533 53.6331 14.9C53.6465 14.4333 53.6531 13.9533 53.6531 13.46C53.6665 12.9533 53.6731 12.5133 53.6731 12.14V11.28C53.6731 10.7733 53.6665 10.3533 53.6531 10.02C53.6531 9.68667 53.6398 9.33333 53.6131 8.96L52.3731 8.8V8.08L55.8731 6.9L56.1731 7.08L56.1131 9.72V12.14C56.1131 12.5133 56.1131 12.9533 56.1131 13.46C56.1265 13.9533 56.1331 14.4333 56.1331 14.9C56.1465 15.3533 56.1598 15.72 56.1731 16H53.6131ZM54.8931 5.32C54.4798 5.32 54.1331 5.19333 53.8531 4.94C53.5731 4.67333 53.4331 4.34667 53.4331 3.96C53.4331 3.53333 53.5731 3.2 53.8531 2.96C54.1331 2.70667 54.4798 2.58 54.8931 2.58C55.2798 2.58 55.6131 2.70667 55.8931 2.96C56.1731 3.2 56.3131 3.53333 56.3131 3.96C56.3131 4.34667 56.1731 4.67333 55.8931 4.94C55.6131 5.19333 55.2798 5.32 54.8931 5.32ZM58.0563 16V15.32L63.1763 7.52L63.4163 7.98H59.4163L60.0963 7.46L59.4763 10.02L58.1563 9.96L58.3162 7.18H65.5963V7.86L60.5962 15.64L60.3363 15.18H64.5163L63.8363 15.72L64.4963 12.96H65.8163L65.6363 16H58.0563ZM71.1928 16.24C70.3261 16.24 69.5528 16.06 68.8728 15.7C68.2061 15.3267 67.6861 14.8 67.3128 14.12C66.9395 13.4267 66.7528 12.6 66.7528 11.64C66.7528 10.64 66.9661 9.78667 67.3928 9.08C67.8328 8.37333 68.3995 7.83333 69.0928 7.46C69.7995 7.08667 70.5395 6.9 71.3128 6.9C72.4461 6.9 73.3395 7.25333 73.9928 7.96C74.6595 8.65333 74.9928 9.56 74.9928 10.68C74.9928 11.0667 74.9528 11.3933 74.8728 11.66H67.8128V10.76H71.5528C71.9928 10.76 72.2861 10.6733 72.4328 10.5C72.5795 10.3133 72.6528 10.04 72.6528 9.68C72.6528 9.09333 72.5061 8.63333 72.2128 8.3C71.9328 7.96667 71.5861 7.8 71.1728 7.8C70.8795 7.8 70.5928 7.91333 70.3128 8.14C70.0328 8.36667 69.7995 8.74 69.6128 9.26C69.4395 9.76667 69.3528 10.4667 69.3528 11.36C69.3528 12.4933 69.6061 13.3333 70.1128 13.88C70.6195 14.4267 71.2528 14.7 72.0128 14.7C72.5328 14.7 72.9795 14.6 73.3528 14.4C73.7261 14.2 74.0595 13.94 74.3528 13.62L74.9128 14.14C74.1928 15.54 72.9528 16.24 71.1928 16.24ZM79.945 16.24C79.2383 16.24 78.605 16.06 78.045 15.7C77.485 15.34 77.045 14.82 76.725 14.14C76.405 13.4467 76.245 12.62 76.245 11.66C76.245 10.6867 76.4317 9.84667 76.805 9.14C77.1783 8.42 77.665 7.86667 78.265 7.48C78.8783 7.09333 79.5383 6.9 80.245 6.9C80.8317 6.9 81.3317 7.02667 81.745 7.28C82.1717 7.53333 82.5717 7.92667 82.945 8.46H83.365L83.185 9.6C82.7717 9.13333 82.3983 8.8 82.065 8.6C81.745 8.38667 81.3983 8.28 81.025 8.28C80.425 8.28 79.9117 8.55333 79.485 9.1C79.0717 9.64667 78.865 10.4933 78.865 11.64C78.865 12.7067 79.065 13.5133 79.465 14.06C79.8783 14.5933 80.3917 14.86 81.005 14.86C81.4583 14.86 81.8517 14.7267 82.185 14.46C82.5317 14.18 82.8717 13.8 83.205 13.32L83.405 14.48H82.985C82.5983 15.08 82.1583 15.5267 81.665 15.82C81.185 16.1 80.6117 16.24 79.945 16.24ZM82.665 16.2L82.445 14.5V8.62L82.525 8.4V4.3L81.145 4.12V3.38L84.705 2.56L85.005 2.74L84.925 5.32V15.02L86.025 15.22V16L82.665 16.2ZM93.02 16V15.22L94.14 15.02C94.1533 14.5667 94.16 14.08 94.16 13.56C94.16 13.0267 94.16 12.5533 94.16 12.14V4.28L92.9 4.12V3.38L96.38 2.56L96.66 2.74L96.6 5.32V8.36L96.64 8.6V14.62L96.26 16.22L93.02 16ZM99 16.24C98.3867 16.24 97.8333 16.1 97.34 15.82C96.86 15.54 96.42 15.06 96.02 14.38H95.62L95.78 13.24C96.2067 13.7867 96.6067 14.2 96.98 14.48C97.3533 14.7467 97.76 14.88 98.2 14.88C98.7867 14.88 99.2733 14.6133 99.66 14.08C100.06 13.5467 100.26 12.72 100.26 11.6C100.26 10.4667 100.073 9.64 99.7 9.12C99.3267 8.58667 98.84 8.32 98.24 8.32C97.8133 8.32 97.3867 8.48667 96.96 8.82C96.5467 9.15333 96.1267 9.53333 95.7 9.96L95.52 8.66H96.16C97.0533 7.48667 98.1 6.9 99.3 6.9C99.9667 6.9 100.567 7.08 101.1 7.44C101.647 7.78667 102.073 8.3 102.38 8.98C102.7 9.66 102.86 10.5 102.86 11.5C102.86 12.4733 102.68 13.32 102.32 14.04C101.973 14.7467 101.507 15.2933 100.92 15.68C100.347 16.0533 99.7067 16.24 99 16.24ZM105.336 20.42C104.856 20.42 104.436 20.2933 104.076 20.04C103.716 19.7867 103.523 19.4667 103.496 19.08C103.563 18.7333 103.729 18.4733 103.996 18.3C104.276 18.1267 104.583 18.04 104.916 18.04C105.156 18.04 105.403 18.0867 105.656 18.18C105.923 18.2867 106.183 18.5067 106.436 18.84L106.996 19.6L106.296 19.92L105.756 19.6C106.249 19.3067 106.676 18.9067 107.036 18.4C107.409 17.8933 107.703 17.32 107.916 16.68L108.776 14.32L111.316 7.18H112.456L108.876 16.46C108.369 17.7933 107.856 18.7867 107.336 19.44C106.816 20.0933 106.149 20.42 105.336 20.42ZM108.156 17.1L104.016 7.18H106.716L109.196 13.94L109.316 14.32L108.156 17.1ZM103.496 7.94V7.18H108.436V7.94L106.616 8.2H105.196L103.496 7.94ZM109.616 7.94V7.18H113.136V7.94L111.656 8.2H111.296L109.616 7.94ZM119.757 16V15.1L121.817 14.84H122.297L124.117 15.1V16H119.757ZM119.857 4.74V3.84H122.437L122.457 5.02H122.157L119.857 4.74ZM121.497 16V3.84H122.457L122.597 9.94V16H121.497ZM126.257 16L121.577 3.84H124.217L127.917 13.46H127.297L130.797 3.84H131.937L127.517 16H126.257ZM129.557 16V15.1L131.877 14.84H132.557L135.137 15.1V16H129.557ZM130.937 16C130.964 15.0667 130.977 14.1333 130.977 13.2C130.99 12.2667 130.997 11.3867 130.997 10.56L131.037 3.84H133.677C133.65 4.77333 133.63 5.72 133.617 6.68C133.617 7.64 133.617 8.6 133.617 9.56V10.3C133.617 11.26 133.617 12.22 133.617 13.18C133.63 14.1267 133.65 15.0667 133.677 16H130.937ZM132.297 5.02V3.84H135.097V4.74L132.557 5.02H132.297ZM137.66 20.42C137.18 20.42 136.76 20.2933 136.4 20.04C136.04 19.7867 135.847 19.4667 135.82 19.08C135.887 18.7333 136.054 18.4733 136.32 18.3C136.6 18.1267 136.907 18.04 137.24 18.04C137.48 18.04 137.727 18.0867 137.98 18.18C138.247 18.2867 138.507 18.5067 138.76 18.84L139.32 19.6L138.62 19.92L138.08 19.6C138.574 19.3067 139 18.9067 139.36 18.4C139.734 17.8933 140.027 17.32 140.24 16.68L141.1 14.32L143.64 7.18H144.78L141.2 16.46C140.694 17.7933 140.18 18.7867 139.66 19.44C139.14 20.0933 138.474 20.42 137.66 20.42ZM140.48 17.1L136.34 7.18H139.04L141.52 13.94L141.64 14.32L140.48 17.1ZM135.82 7.94V7.18H140.76V7.94L138.94 8.2H137.52L135.82 7.94ZM141.94 7.94V7.18H145.46V7.94L143.98 8.2H143.62L141.94 7.94ZM150.648 16.24C149.781 16.24 149.001 16.0533 148.308 15.68C147.628 15.3067 147.094 14.7733 146.708 14.08C146.321 13.3733 146.128 12.54 146.128 11.58C146.128 10.6067 146.334 9.77333 146.748 9.08C147.161 8.38667 147.708 7.85333 148.388 7.48C149.081 7.09333 149.834 6.9 150.648 6.9C151.461 6.9 152.208 7.08667 152.888 7.46C153.581 7.83333 154.134 8.36667 154.548 9.06C154.961 9.75333 155.168 10.5933 155.168 11.58C155.168 12.5533 154.974 13.3867 154.588 14.08C154.201 14.7733 153.668 15.3067 152.988 15.68C152.308 16.0533 151.528 16.24 150.648 16.24ZM150.648 15.34C151.248 15.34 151.708 15.04 152.028 14.44C152.348 13.8267 152.508 12.8867 152.508 11.62C152.508 10.3267 152.348 9.37333 152.028 8.76C151.708 8.13333 151.248 7.82 150.648 7.82C150.034 7.82 149.568 8.13333 149.248 8.76C148.941 9.37333 148.788 10.3267 148.788 11.62C148.788 12.8867 148.941 13.8267 149.248 14.44C149.568 15.04 150.034 15.34 150.648 15.34ZM163.021 16C163.034 15.72 163.041 15.3533 163.041 14.9C163.054 14.4467 163.061 13.9733 163.061 13.48C163.074 12.9733 163.081 12.5267 163.081 12.14V10.34C163.081 9.66 162.987 9.18667 162.801 8.92C162.627 8.65333 162.327 8.52 161.901 8.52C161.141 8.52 160.334 8.96 159.481 9.84L159.341 8.8H159.681C160.187 8.14667 160.714 7.66667 161.261 7.36C161.807 7.05333 162.387 6.9 163.001 6.9C163.787 6.9 164.407 7.16667 164.861 7.7C165.327 8.22 165.561 9.03333 165.561 10.14V12.14C165.561 12.5267 165.561 12.9733 165.561 13.48C165.574 13.9733 165.581 14.4467 165.581 14.9C165.594 15.3533 165.607 15.72 165.621 16H163.021ZM156.381 16V15.22L158.181 14.86H159.261L161.041 15.22V16H156.381ZM157.481 16C157.494 15.72 157.501 15.3533 157.501 14.9C157.514 14.4333 157.521 13.9533 157.521 13.46C157.534 12.9533 157.541 12.5133 157.541 12.14V11.14C157.541 10.6333 157.534 10.24 157.521 9.96C157.521 9.66667 157.507 9.33333 157.481 8.96L156.241 8.8V8.08L159.501 6.9L159.821 7.08L160.001 9.16V12.14C160.001 12.5133 160.001 12.9533 160.001 13.46C160.014 13.9533 160.021 14.4333 160.021 14.9C160.034 15.3533 160.047 15.72 160.061 16H157.481ZM161.981 16V15.22L163.741 14.86H164.821L166.621 15.22V16H161.981ZM171.37 20.24C170.397 20.24 169.624 20.14 169.05 19.94C168.49 19.74 168.084 19.4733 167.83 19.14C167.59 18.8067 167.47 18.4467 167.47 18.06C167.47 17.6067 167.637 17.2 167.97 16.84C168.304 16.4933 168.857 16.1733 169.63 15.88L169.85 16C169.61 16.3067 169.43 16.5733 169.31 16.8C169.204 17.04 169.15 17.3133 169.15 17.62C169.15 18.1933 169.357 18.6 169.77 18.84C170.184 19.0933 170.79 19.22 171.59 19.22C172.537 19.22 173.25 19.0667 173.73 18.76C174.224 18.4667 174.47 18.1067 174.47 17.68C174.47 17.36 174.357 17.08 174.13 16.84C173.904 16.6 173.517 16.48 172.97 16.48H170.97C170.637 16.48 170.33 16.4667 170.05 16.44C169.77 16.4133 169.53 16.36 169.33 16.28V16.2C168.864 16.0667 168.517 15.8667 168.29 15.6C168.077 15.3333 167.97 15.02 167.97 14.66C167.97 14.26 168.097 13.8667 168.35 13.48C168.604 13.0933 168.99 12.68 169.51 12.24V12.04L170.21 12.34C170.024 12.5533 169.884 12.7533 169.79 12.94C169.71 13.1267 169.67 13.3467 169.67 13.6C169.67 13.8133 169.744 13.9933 169.89 14.14C170.05 14.2733 170.337 14.34 170.75 14.34H172.99C174.257 14.34 175.157 14.5733 175.69 15.04C176.224 15.4933 176.49 16.1133 176.49 16.9C176.49 17.4867 176.297 18.0333 175.91 18.54C175.524 19.06 174.95 19.4733 174.19 19.78C173.43 20.0867 172.49 20.24 171.37 20.24ZM171.55 12.86C170.35 12.86 169.437 12.5933 168.81 12.06C168.184 11.5133 167.87 10.7933 167.87 9.9C167.87 9.00667 168.184 8.28667 168.81 7.74C169.45 7.18 170.364 6.9 171.55 6.9C172.75 6.9 173.664 7.17333 174.29 7.72C174.917 8.25333 175.23 8.98 175.23 9.9C175.23 10.7667 174.91 11.48 174.27 12.04C173.644 12.5867 172.737 12.86 171.55 12.86ZM171.51 12.04C172.004 12.04 172.377 11.84 172.63 11.44C172.884 11.04 173.01 10.5067 173.01 9.84C173.01 9.2 172.884 8.68667 172.63 8.3C172.39 7.91333 172.037 7.72 171.57 7.72C171.104 7.72 170.744 7.92 170.49 8.32C170.237 8.70667 170.11 9.22667 170.11 9.88C170.11 10.5333 170.224 11.06 170.45 11.46C170.69 11.8467 171.044 12.04 171.51 12.04ZM173.85 8.4V7.82H173.97L176.35 6.88L176.63 7.06V8.4H173.85ZM177.055 20.42C176.441 20.42 175.961 20.2933 175.615 20.04C175.268 19.8 175.048 19.5267 174.955 19.22C175.008 18.86 175.168 18.58 175.435 18.38C175.701 18.18 176.001 18.08 176.335 18.08C176.921 18.08 177.441 18.38 177.895 18.98L178.595 19.88L177.335 20.14L177.235 19.76C177.515 19.76 177.755 19.6933 177.955 19.56C178.155 19.44 178.301 19.2067 178.395 18.86C178.515 18.4333 178.575 17.8267 178.575 17.04C178.575 16.2667 178.575 15.3733 178.575 14.36V11.28C178.575 10.7733 178.568 10.3533 178.555 10.02C178.555 9.68667 178.541 9.33333 178.515 8.96L177.295 8.8V8.08L180.775 6.9L181.055 7.08L181.015 9.72V14.74C181.015 15.5533 180.981 16.24 180.915 16.8C180.848 17.36 180.728 17.8333 180.555 18.22C180.395 18.6067 180.155 18.96 179.835 19.28C179.408 19.7067 178.961 20 178.495 20.16C178.028 20.3333 177.548 20.42 177.055 20.42ZM179.775 5.32C179.375 5.32 179.028 5.19333 178.735 4.94C178.455 4.67333 178.315 4.34667 178.315 3.96C178.315 3.53333 178.455 3.2 178.735 2.96C179.028 2.70667 179.375 2.58 179.775 2.58C180.175 2.58 180.515 2.70667 180.795 2.96C181.088 3.2 181.235 3.53333 181.235 3.96C181.235 4.34667 181.088 4.67333 180.795 4.94C180.515 5.19333 180.175 5.32 179.775 5.32ZM182.923 16V15.22L184.723 14.86H185.803L187.623 15.22V16H182.923ZM184.023 16C184.037 15.72 184.043 15.3533 184.043 14.9C184.057 14.4333 184.063 13.9533 184.063 13.46C184.077 12.9533 184.083 12.5133 184.083 12.14V11.28C184.083 10.7733 184.077 10.3533 184.063 10.02C184.063 9.68667 184.05 9.33333 184.023 8.96L182.783 8.8V8.08L186.283 6.9L186.583 7.08L186.523 9.72V12.14C186.523 12.5133 186.523 12.9533 186.523 13.46C186.537 13.9533 186.543 14.4333 186.543 14.9C186.557 15.3533 186.57 15.72 186.583 16H184.023ZM185.303 5.32C184.89 5.32 184.543 5.19333 184.263 4.94C183.983 4.67333 183.843 4.34667 183.843 3.96C183.843 3.53333 183.983 3.2 184.263 2.96C184.543 2.70667 184.89 2.58 185.303 2.58C185.69 2.58 186.023 2.70667 186.303 2.96C186.583 3.2 186.723 3.53333 186.723 3.96C186.723 4.34667 186.583 4.67333 186.303 4.94C186.023 5.19333 185.69 5.32 185.303 5.32ZM200.84 16.32C199.933 16.32 199.126 16.16 198.42 15.84C197.726 15.5067 197.18 14.98 196.78 14.26C196.393 13.54 196.2 12.5933 196.2 11.42V9.42C196.2 8.5 196.193 7.57333 196.18 6.64C196.18 5.70667 196.166 4.77333 196.14 3.84H198.9C198.873 4.74667 198.853 5.66667 198.84 6.6C198.84 7.53333 198.84 8.47333 198.84 9.42V10.84C198.84 12.3067 199.073 13.3333 199.54 13.92C200.02 14.4933 200.706 14.78 201.6 14.78C202.493 14.78 203.18 14.4733 203.66 13.86C204.153 13.2333 204.4 12.1867 204.4 10.72V3.84H205.52V10.86C205.52 12.1533 205.326 13.2067 204.94 14.02C204.553 14.82 204.006 15.4067 203.3 15.78C202.606 16.14 201.786 16.32 200.84 16.32ZM194.76 4.74V3.84H200.5V4.74L197.88 5.02H197.4L194.76 4.74ZM202.68 4.74V3.84H207.06V4.74L205.14 4.96H204.66L202.68 4.74ZM214.818 16C214.831 15.72 214.838 15.3533 214.838 14.9C214.851 14.4467 214.858 13.9733 214.858 13.48C214.871 12.9733 214.878 12.5267 214.878 12.14V10.34C214.878 9.66 214.784 9.18667 214.598 8.92C214.424 8.65333 214.124 8.52 213.698 8.52C212.938 8.52 212.131 8.96 211.278 9.84L211.138 8.8H211.478C211.984 8.14667 212.511 7.66667 213.058 7.36C213.604 7.05333 214.184 6.9 214.798 6.9C215.584 6.9 216.204 7.16667 216.658 7.7C217.124 8.22 217.358 9.03333 217.358 10.14V12.14C217.358 12.5267 217.358 12.9733 217.358 13.48C217.371 13.9733 217.378 14.4467 217.378 14.9C217.391 15.3533 217.404 15.72 217.418 16H214.818ZM208.178 16V15.22L209.978 14.86H211.058L212.838 15.22V16H208.178ZM209.278 16C209.291 15.72 209.298 15.3533 209.298 14.9C209.311 14.4333 209.318 13.9533 209.318 13.46C209.331 12.9533 209.338 12.5133 209.338 12.14V11.14C209.338 10.6333 209.331 10.24 209.318 9.96C209.318 9.66667 209.304 9.33333 209.278 8.96L208.038 8.8V8.08L211.298 6.9L211.618 7.08L211.798 9.16V12.14C211.798 12.5133 211.798 12.9533 211.798 13.46C211.811 13.9533 211.818 14.4333 211.818 14.9C211.831 15.3533 211.844 15.72 211.858 16H209.278ZM213.778 16V15.22L215.538 14.86H216.618L218.418 15.22V16H213.778ZM219.427 16V15.22L221.227 14.86H222.307L224.127 15.22V16H219.427ZM220.527 16C220.541 15.72 220.547 15.3533 220.547 14.9C220.561 14.4333 220.567 13.9533 220.567 13.46C220.581 12.9533 220.587 12.5133 220.587 12.14V11.28C220.587 10.7733 220.581 10.3533 220.567 10.02C220.567 9.68667 220.554 9.33333 220.527 8.96L219.287 8.8V8.08L222.787 6.9L223.087 7.08L223.027 9.72V12.14C223.027 12.5133 223.027 12.9533 223.027 13.46C223.041 13.9533 223.047 14.4333 223.047 14.9C223.061 15.3533 223.074 15.72 223.087 16H220.527ZM221.807 5.32C221.394 5.32 221.047 5.19333 220.767 4.94C220.487 4.67333 220.347 4.34667 220.347 3.96C220.347 3.53333 220.487 3.2 220.767 2.96C221.047 2.70667 221.394 2.58 221.807 2.58C222.194 2.58 222.527 2.70667 222.807 2.96C223.087 3.2 223.227 3.53333 223.227 3.96C223.227 4.34667 223.087 4.67333 222.807 4.94C222.527 5.19333 222.194 5.32 221.807 5.32ZM228.73 16.04L225.03 7.18H227.75L230.23 13.8H229.85L232.13 7.18H233.31L229.93 16.04H228.73ZM224.49 7.96V7.18H229.43V7.96L227.59 8.28H226.17L224.49 7.96ZM230.51 7.96V7.18H233.99V7.96L232.55 8.24H232.15L230.51 7.96Z" fill="#FF5050"/>
</svg>
