<svg width="448" height="577" viewBox="0 0 448 577" fill="none" xmlns="http://www.w3.org/2000/svg">
<circle opacity="0.28" cx="224" cy="224" r="220.5" fill="#141414" stroke="black" stroke-width="7"/>
<circle cx="273.919" cy="190.013" r="29.0126" fill="white"/>
<circle cx="285.949" cy="250.161" r="41.0422" fill="white"/>
<path d="M312.131 227.517C333.077 221.29 335.954 217.846 334.775 216.902" stroke="#5B3808" stroke-width="2"/>
<path d="M250.407 229.645C237.128 221.85 235.65 218.388 236.571 217.632" stroke="#5B3808" stroke-width="2"/>
<circle cx="259.059" cy="185.059" r="2.83049" fill="black"/>
<circle cx="280.288" cy="187.89" r="2.83049" fill="black"/>
<path d="M259.1 197.731C257.78 197.315 257.78 195.447 259.1 195.031L264.649 193.284C265.561 192.997 266.489 193.678 266.489 194.634V198.129C266.489 199.085 265.561 199.766 264.649 199.479L259.1 197.731Z" fill="#E8480D"/>
<path d="M160.342 152.064C161.943 150.003 165.057 150.003 166.658 152.064L203.95 200.045C205.992 202.673 204.119 206.5 200.791 206.5H126.209C122.881 206.5 121.008 202.673 123.05 200.045L160.342 152.064Z" fill="#5BB844"/>
<path d="M160.339 179.076C161.94 177.011 165.06 177.011 166.661 179.076L217.82 245.049C219.858 247.677 217.985 251.5 214.659 251.5H112.341C109.015 251.5 107.142 247.677 109.18 245.049L160.339 179.076Z" fill="#5BB844"/>
<rect x="152" y="251" width="24" height="26" fill="#763F08"/>
<circle cx="147.5" cy="182.5" r="4.5" fill="#FF5353"/>
<circle cx="183.5" cy="192.5" r="4.5" fill="#FFE553"/>
<circle cx="132.5" cy="234.5" r="4.5" fill="#53BDFF"/>
<circle cx="197.5" cy="241.5" r="4.5" fill="#53FFA1"/>
<circle cx="161.5" cy="213.5" r="4.5" fill="#FFB753"/>
<circle cx="143" cy="74" r="3" fill="white"/>
<circle cx="222" cy="172" r="3" fill="white"/>
<circle cx="240" cy="48" r="3" fill="white"/>
<circle cx="92" cy="164" r="3" fill="white"/>
<circle cx="58" cy="224" r="3" fill="white"/>
<circle cx="149" cy="124" r="3" fill="white"/>
<circle cx="38" cy="169" r="3" fill="white"/>
<circle cx="240" cy="118" r="3" fill="white"/>
<circle cx="292" cy="80" r="3" fill="white"/>
<circle cx="205" cy="80" r="3" fill="white"/>
<circle cx="286" cy="142" r="3" fill="white"/>
<circle cx="86" cy="100" r="3" fill="white"/>
<circle cx="353" cy="106" r="3" fill="white"/>
<circle cx="356" cy="180" r="3" fill="white"/>
<circle cx="356" cy="243" r="3" fill="white"/>
<circle cx="384" cy="148" r="3" fill="white"/>
<circle cx="396" cy="223" r="3" fill="white"/>
<path d="M414.778 281.13C421.278 301.63 409.315 322.165 398.736 341.053C388.156 359.941 372.69 376.9 353.318 390.857C333.945 404.813 311.088 415.463 286.193 422.131C261.299 428.8 234.91 431.341 208.698 429.596C182.486 427.85 157.022 421.854 133.918 411.989C110.814 402.123 90.5749 388.603 74.4814 372.284C58.3878 355.965 46.7909 337.203 40.4251 317.186C34.0592 297.17 24.7219 269.37 37.5 256C50.2781 242.63 154.5 281.13 224.778 281.13C295.056 281.13 408.278 260.63 414.778 281.13Z" fill="white"/>
<path d="M29.2986 450.029C32.173 438.337 44.6947 431.856 56.018 435.949C184.638 482.434 265.496 482.641 394.675 435.993C406.045 431.888 418.609 438.439 421.424 450.195L441.924 535.803C444.654 547.203 436.991 558.513 425.385 560.163C271.568 582.03 176.98 581.152 24.8634 560.104C13.1661 558.486 5.44113 547.071 8.26032 535.603L29.2986 450.029Z" fill="#FF5050"/>
</svg>
