<svg width="990" height="91" viewBox="0 0 990 91" fill="none" xmlns="http://www.w3.org/2000/svg">
<path d="M0.58 6.38C0.58 5.63333 0.693333 5 0.92 4.48C1.14667 3.96 1.46667 3.53333 1.88 3.2C2.29333 2.86667 2.79333 2.62667 3.38 2.48C3.96667 2.33333 4.61333 2.26 5.32 2.26C6.04 2.26 6.68667 2.33333 7.26 2.48C7.83333 2.62667 8.32 2.86667 8.72 3.2C9.12 3.53333 9.42667 3.96 9.64 4.48C9.85333 5 9.96 5.63333 9.96 6.38C9.96 7.12667 9.85333 7.76667 9.64 8.3C9.42667 8.82 9.12 9.24667 8.72 9.58C8.32 9.9 7.83333 10.14 7.26 10.3C6.68667 10.4467 6.04 10.52 5.32 10.52C4.61333 10.52 3.96667 10.4467 3.38 10.3C2.79333 10.14 2.29333 9.9 1.88 9.58C1.46667 9.24667 1.14667 8.82 0.92 8.3C0.693333 7.76667 0.58 7.12667 0.58 6.38ZM7 6.38C7 5.43333 6.88667 4.70667 6.66 4.2C6.44667 3.68 6 3.42 5.32 3.42C4.64 3.42 4.18667 3.68 3.96 4.2C3.74667 4.70667 3.64 5.43333 3.64 6.38C3.64 7.32667 3.74667 8.06 3.96 8.58C4.18667 9.1 4.64 9.36 5.32 9.36C6 9.36 6.44667 9.1 6.66 8.58C6.88667 8.06 7 7.32667 7 6.38ZM15.14 11H12.76C12.4533 11 12.2467 10.94 12.14 10.82C12.0333 10.7 11.98 10.5067 11.98 10.24V2.04H15.14V11ZM2.68 12.02H5.84V14.54H11.98V12.02H15.14V19.6H3.48C3.16 19.6 2.94667 19.5067 2.84 19.32C2.73333 19.1467 2.68 18.9267 2.68 18.66V12.02ZM11.98 18.44V15.7H5.84V18.44H11.98ZM26.8117 3.82H24.0317V4.88C24.0317 5.68 24.1251 6.36667 24.3117 6.94C24.4984 7.5 24.7584 7.99333 25.0917 8.42C25.4384 8.83333 25.8451 9.19333 26.3117 9.5C26.7917 9.79333 27.3251 10.0733 27.9117 10.34L27.3717 11.3C26.1984 10.9933 25.2184 10.5733 24.4317 10.04C23.6584 9.50667 23.0117 8.88 22.4917 8.16C21.9184 9.06667 21.2517 9.83333 20.4917 10.46C19.7317 11.0733 18.8117 11.5533 17.7317 11.9L17.1717 10.94C17.6517 10.7133 18.1117 10.44 18.5517 10.12C19.0051 9.78667 19.3984 9.38 19.7317 8.9C20.0784 8.42 20.3517 7.85333 20.5517 7.2C20.7651 6.53333 20.8717 5.75333 20.8717 4.86V3.82H17.8117V2.66H26.8117V3.82ZM31.7717 6.36H33.8317V7.36H31.7717V11.82H29.3717C29.0651 11.82 28.8584 11.76 28.7517 11.64C28.6451 11.52 28.5917 11.3267 28.5917 11.06V2.04H31.7717V6.36ZM22.7717 16.26C22.7717 16.8067 22.8451 17.2667 22.9917 17.64C23.1384 18.0267 23.3451 18.3333 23.6117 18.56C23.8784 18.8 24.1917 18.9667 24.5517 19.06C24.9117 19.1667 25.3117 19.22 25.7517 19.22C26.1784 19.22 26.5717 19.1667 26.9317 19.06C27.3051 18.9667 27.6251 18.8 27.8917 18.56C28.1584 18.3333 28.3651 18.0267 28.5117 17.64C28.6584 17.2667 28.7317 16.8067 28.7317 16.26C28.7317 15.7 28.6584 15.2333 28.5117 14.86C28.3651 14.4867 28.1584 14.1867 27.8917 13.96C27.6251 13.72 27.3051 13.5533 26.9317 13.46C26.5717 13.3533 26.1784 13.3 25.7517 13.3C25.3117 13.3 24.9117 13.3533 24.5517 13.46C24.1917 13.5533 23.8784 13.72 23.6117 13.96C23.3451 14.1867 23.1384 14.4867 22.9917 14.86C22.8451 15.2333 22.7717 15.7 22.7717 16.26ZM19.6117 16.26C19.6117 15.6067 19.7517 15.0333 20.0317 14.54C20.3251 14.0467 20.7384 13.64 21.2717 13.32C21.8051 12.9867 22.4517 12.74 23.2117 12.58C23.9717 12.4067 24.8184 12.32 25.7517 12.32C26.6851 12.32 27.5251 12.4067 28.2717 12.58C29.0317 12.74 29.6784 12.9867 30.2117 13.32C30.7451 13.64 31.1584 14.0467 31.4517 14.54C31.7451 15.0333 31.8917 15.6067 31.8917 16.26C31.8917 16.9133 31.7451 17.4867 31.4517 17.98C31.1584 18.4733 30.7451 18.88 30.2117 19.2C29.6784 19.5333 29.0317 19.78 28.2717 19.94C27.5251 20.1133 26.6851 20.2 25.7517 20.2C24.8184 20.2 23.9717 20.1133 23.2117 19.94C22.4517 19.78 21.8051 19.5333 21.2717 19.2C20.7384 18.88 20.3251 18.4733 20.0317 17.98C19.7517 17.4867 19.6117 16.9133 19.6117 16.26ZM42.9209 16.26C42.9209 15.6067 43.0609 15.0333 43.3409 14.54C43.6343 14.0467 44.0476 13.64 44.5809 13.32C45.1143 12.9867 45.7543 12.74 46.5009 12.58C47.2609 12.4067 48.1076 12.32 49.0409 12.32C49.9743 12.32 50.8209 12.4067 51.5809 12.58C52.3409 12.74 52.9876 12.9867 53.5209 13.32C54.0543 13.64 54.4676 14.0467 54.7609 14.54C55.0543 15.0333 55.2009 15.6067 55.2009 16.26C55.2009 16.9133 55.0543 17.4867 54.7609 17.98C54.4676 18.4733 54.0543 18.88 53.5209 19.2C52.9876 19.5333 52.3409 19.78 51.5809 19.94C50.8209 20.1133 49.9743 20.2 49.0409 20.2C48.1076 20.2 47.2609 20.1133 46.5009 19.94C45.7543 19.78 45.1143 19.5333 44.5809 19.2C44.0476 18.88 43.6343 18.4733 43.3409 17.98C43.0609 17.4867 42.9209 16.9133 42.9209 16.26ZM49.7609 3.82H46.9809V4.94C46.9809 5.74 47.0743 6.42667 47.2609 7C47.4476 7.56 47.7076 8.05333 48.0409 8.48C48.3876 8.89333 48.7943 9.25333 49.2609 9.56C49.7409 9.85333 50.2743 10.1333 50.8609 10.4L50.3209 11.36C49.1476 11.0533 48.1676 10.6333 47.3809 10.1C46.6076 9.56667 45.9609 8.94 45.4409 8.22C44.8676 9.12667 44.2009 9.89333 43.4409 10.52C42.6809 11.1333 41.7609 11.6133 40.6809 11.96L40.1209 11C40.6009 10.7733 41.0609 10.5 41.5009 10.18C41.9543 9.84667 42.3476 9.44 42.6809 8.96C43.0276 8.48 43.3009 7.91333 43.5009 7.26C43.7143 6.59333 43.8209 5.81333 43.8209 4.92V3.82H40.7609V2.66H49.7609V3.82ZM48.8009 6.02H51.9409V2.04H55.1009V11.96H52.7209C52.4143 11.96 52.2076 11.9 52.1009 11.78C51.9943 11.66 51.9409 11.4667 51.9409 11.2V7.18H48.8009V6.02ZM46.0809 16.26C46.0809 16.8067 46.1543 17.2667 46.3009 17.64C46.4476 18.0267 46.6476 18.3333 46.9009 18.56C47.1676 18.8 47.4809 18.9667 47.8409 19.06C48.2143 19.1667 48.6143 19.22 49.0409 19.22C49.4809 19.22 49.8809 19.1667 50.2409 19.06C50.6143 18.9667 50.9343 18.8 51.2009 18.56C51.4676 18.3333 51.6743 18.0267 51.8209 17.64C51.9676 17.2667 52.0409 16.8067 52.0409 16.26C52.0409 15.7 51.9676 15.2333 51.8209 14.86C51.6743 14.4867 51.4676 14.1867 51.2009 13.96C50.9343 13.72 50.6143 13.5533 50.2409 13.46C49.8809 13.3533 49.4809 13.3 49.0409 13.3C48.6143 13.3 48.2143 13.3533 47.8409 13.46C47.4809 13.5533 47.1676 13.72 46.9009 13.96C46.6476 14.1867 46.4476 14.4867 46.3009 14.86C46.1543 15.2333 46.0809 15.7 46.0809 16.26ZM72.8127 18.24H57.5727V17.08H63.4727V12.24H58.8927V2.46H62.0527V5.98H68.3127V2.46H71.4927V12.24H66.9527V17.08H72.8127V18.24ZM68.3127 11.08V7.14H62.0527V11.08H68.3127Z" fill="#FF5050"/>
<path d="M131.84 12.18H116.6V11.02H122.5V9.22C121.78 9.15333 121.12 9.03333 120.52 8.86C119.933 8.68667 119.427 8.45333 119 8.16C118.573 7.86667 118.24 7.51333 118 7.1C117.773 6.68667 117.66 6.2 117.66 5.64C117.66 4.98667 117.827 4.42667 118.16 3.96C118.493 3.49333 118.953 3.11333 119.54 2.82C120.127 2.51333 120.813 2.29333 121.6 2.16C122.4 2.02667 123.267 1.96 124.2 1.96C125.133 1.96 125.993 2.02667 126.78 2.16C127.58 2.29333 128.273 2.51333 128.86 2.82C129.447 3.11333 129.907 3.49333 130.24 3.96C130.573 4.42667 130.74 4.98667 130.74 5.64C130.74 6.18667 130.62 6.66667 130.38 7.08C130.153 7.49333 129.827 7.84667 129.4 8.14C128.987 8.43333 128.487 8.66667 127.9 8.84C127.313 9.01333 126.673 9.14 125.98 9.22V11.02H131.84V12.18ZM121.44 18.44H130.84V19.6H118.9C118.567 19.6 118.347 19.5067 118.24 19.32C118.133 19.1467 118.08 18.9267 118.08 18.66V13.9H121.44V18.44ZM124.2 8.14C125.387 8.14 126.24 7.92667 126.76 7.5C127.293 7.06 127.56 6.44 127.56 5.64C127.56 4.84 127.293 4.22667 126.76 3.8C126.24 3.36 125.387 3.14 124.2 3.14C123.013 3.14 122.153 3.36 121.62 3.8C121.1 4.22667 120.84 4.84 120.84 5.64C120.84 6.44 121.1 7.06 121.62 7.5C122.153 7.92667 123.013 8.14 124.2 8.14ZM141.565 10.78H136.865V16.78H142.465V17.94H133.685V9.6H138.405V3.62H133.565V2.46H140.945C141.172 2.46 141.332 2.51333 141.425 2.62C141.519 2.72667 141.565 2.91333 141.565 3.18V10.78ZM149.205 10.58H147.125V19.66H144.705C144.252 19.66 144.025 19.4333 144.025 18.98V2.06H147.125V9.42H149.205V10.58ZM150.037 7.26C150.037 6.46 150.15 5.76 150.377 5.16C150.604 4.56 150.924 4.06 151.337 3.66C151.75 3.26 152.25 2.96 152.837 2.76C153.424 2.56 154.07 2.46 154.777 2.46C156.217 2.46 157.35 2.86 158.177 3.66C159.004 4.46 159.417 5.66 159.417 7.26C159.417 8.86 159.004 10.06 158.177 10.86C157.35 11.66 156.217 12.06 154.777 12.06C154.07 12.06 153.424 11.96 152.837 11.76C152.25 11.56 151.75 11.26 151.337 10.86C150.924 10.46 150.604 9.96 150.377 9.36C150.15 8.76 150.037 8.06 150.037 7.26ZM156.457 7.26C156.457 6.59333 156.43 6.02667 156.377 5.56C156.337 5.09333 156.25 4.72 156.117 4.44C155.997 4.14667 155.824 3.94 155.597 3.82C155.384 3.68667 155.11 3.62 154.777 3.62C154.43 3.62 154.15 3.68667 153.937 3.82C153.724 3.94 153.55 4.14667 153.417 4.44C153.297 4.72 153.21 5.09333 153.157 5.56C153.117 6.02667 153.097 6.59333 153.097 7.26C153.097 7.92667 153.117 8.49333 153.157 8.96C153.21 9.42667 153.297 9.80667 153.417 10.1C153.55 10.38 153.724 10.5867 153.937 10.72C154.15 10.84 154.43 10.9 154.777 10.9C155.11 10.9 155.384 10.84 155.597 10.72C155.824 10.5867 155.997 10.38 156.117 10.1C156.25 9.80667 156.337 9.42667 156.377 8.96C156.43 8.49333 156.457 7.92667 156.457 7.26ZM164.597 14.68H162.217C161.91 14.68 161.704 14.62 161.597 14.5C161.49 14.38 161.437 14.1867 161.437 13.92V2.04H164.597V14.68ZM155.697 18.6H164.697V19.6H153.137C152.804 19.6 152.584 19.5067 152.477 19.32C152.384 19.1467 152.337 18.9267 152.337 18.66V13.54H155.697V18.6ZM182.846 17.74H173.886V2.56H182.186V3.72H177.046V9.42H181.886V10.6H177.046V16.58H182.846V17.74ZM187.326 19.66H184.926C184.473 19.66 184.246 19.4333 184.246 18.98V2.06H187.326V19.66ZM201.218 11.36H199.318C199.011 11.36 198.805 11.3 198.698 11.18C198.591 11.06 198.538 10.8667 198.538 10.6V7.5H196.478C196.225 8.1 195.891 8.64 195.478 9.12C195.065 9.6 194.585 10.0267 194.038 10.4C193.505 10.76 192.918 11.0733 192.278 11.34C191.638 11.5933 190.971 11.7933 190.278 11.94L189.958 11.28C190.918 10.9733 191.725 10.5067 192.378 9.88C193.045 9.24 193.531 8.42 193.838 7.42H190.438V6.26H194.078C194.105 6.03333 194.125 5.81333 194.138 5.6C194.165 5.37333 194.178 5.14 194.178 4.9V3.58H190.498V2.6H196.398C196.638 2.6 196.805 2.65333 196.898 2.76C196.991 2.86667 197.038 3.05333 197.038 3.32V4.86C197.038 5.12667 197.025 5.38 196.998 5.62C196.971 5.86 196.931 6.09333 196.878 6.32H198.538V2.04H201.218V11.36ZM191.738 19.06C192.511 18.8067 193.218 18.5133 193.858 18.18C194.511 17.8467 195.071 17.4533 195.538 17C196.018 16.5467 196.385 16.0333 196.638 15.46C196.905 14.8867 197.038 14.2333 197.038 13.5V12.4H200.598V13.46C200.598 14.2067 200.725 14.8667 200.978 15.44C201.245 16 201.611 16.4933 202.078 16.92C202.558 17.3467 203.118 17.7133 203.758 18.02C204.411 18.34 205.125 18.6133 205.898 18.84L205.518 19.82C204.065 19.4733 202.771 18.9867 201.638 18.36C200.505 17.7333 199.578 16.98 198.858 16.1C198.151 17.0867 197.231 17.8933 196.098 18.52C194.978 19.1467 193.651 19.6467 192.118 20.02L191.738 19.06ZM205.058 11.94H203.158C202.851 11.94 202.645 11.88 202.538 11.76C202.431 11.64 202.378 11.4467 202.378 11.18V2.04H205.058V11.94ZM224.307 19.74H222.287C221.834 19.74 221.607 19.5133 221.607 19.06V13.26H220.347C220.267 14.3533 220.127 15.24 219.927 15.92C219.727 16.5867 219.474 17.1067 219.167 17.48C218.861 17.8533 218.501 18.1067 218.087 18.24C217.687 18.3733 217.234 18.44 216.727 18.44C216.114 18.44 215.567 18.34 215.087 18.14C214.621 17.9533 214.221 17.5733 213.887 17C213.567 16.4267 213.321 15.6133 213.147 14.56C212.974 13.4933 212.887 12.0933 212.887 10.36C212.887 8.57333 212.974 7.14667 213.147 6.08C213.321 5.01333 213.567 4.2 213.887 3.64C214.221 3.08 214.621 2.71333 215.087 2.54C215.567 2.36667 216.114 2.28 216.727 2.28C217.207 2.28 217.641 2.33333 218.027 2.44C218.427 2.53333 218.774 2.74 219.067 3.06C219.374 3.36667 219.627 3.80667 219.827 4.38C220.027 4.95333 220.181 5.71333 220.287 6.66H221.607V2.14H224.307V19.74ZM228.167 19.74H226.147C225.694 19.74 225.467 19.5133 225.467 19.06V2.14H228.167V19.74ZM217.887 10.36C217.887 9.04 217.867 7.94 217.827 7.06C217.801 6.16667 217.741 5.45333 217.647 4.92C217.567 4.38667 217.454 4.00667 217.307 3.78C217.161 3.55333 216.967 3.44 216.727 3.44C216.487 3.44 216.287 3.55333 216.127 3.78C215.981 4.00667 215.861 4.38667 215.767 4.92C215.687 5.45333 215.627 6.16667 215.587 7.06C215.561 7.94 215.547 9.04 215.547 10.36C215.547 11.64 215.561 12.72 215.587 13.6C215.627 14.4667 215.687 15.1733 215.767 15.72C215.861 16.2667 215.981 16.66 216.127 16.9C216.287 17.14 216.487 17.26 216.727 17.26C216.967 17.26 217.161 17.1533 217.307 16.94C217.454 16.7133 217.567 16.3333 217.647 15.8C217.741 15.2667 217.801 14.56 217.827 13.68C217.867 12.7867 217.887 11.68 217.887 10.36ZM220.467 10.3C220.467 10.62 220.461 10.9267 220.447 11.22C220.447 11.5133 220.441 11.7933 220.427 12.06H221.607V7.86H220.407C220.447 8.58 220.467 9.39333 220.467 10.3ZM237.479 17.74H230.539V2.56H236.839C237.079 2.56 237.246 2.61333 237.339 2.72C237.432 2.82667 237.479 3.01333 237.479 3.28V17.74ZM233.319 16.58H234.799V3.72H233.319V16.58ZM242.419 1.96H245.099V19.6H242.979C242.606 19.6 242.419 19.42 242.419 19.06V10.02H241.259V19.6H239.119C238.919 19.6 238.779 19.5467 238.699 19.44C238.619 19.3333 238.579 19.2133 238.579 19.08V1.96H241.259V9.02H242.419V1.96ZM253.228 10.18V2.44H261.288C261.528 2.44 261.695 2.49333 261.788 2.6C261.881 2.70667 261.928 2.89333 261.928 3.16V10.18H253.228ZM256.288 9.02H258.968V3.6H256.288V9.02ZM267.468 11.48H265.088C264.781 11.48 264.575 11.42 264.468 11.3C264.361 11.18 264.308 10.9867 264.308 10.72V2.04H267.468V11.48ZM267.588 14.32H262.908C262.975 14.9733 263.155 15.5333 263.448 16C263.755 16.4533 264.141 16.8467 264.608 17.18C265.075 17.5267 265.608 17.8267 266.208 18.08C266.821 18.3333 267.475 18.5667 268.168 18.78L267.588 19.82C266.988 19.6733 266.381 19.4733 265.768 19.22C265.155 18.98 264.561 18.7 263.988 18.38C263.428 18.06 262.901 17.7067 262.408 17.32C261.928 16.9333 261.508 16.52 261.148 16.08C260.788 16.5733 260.361 17.02 259.868 17.42C259.388 17.8333 258.861 18.2067 258.288 18.54C257.728 18.8733 257.128 19.16 256.488 19.4C255.861 19.6533 255.228 19.86 254.588 20.02L254.008 19C254.728 18.76 255.395 18.5 256.008 18.22C256.635 17.9533 257.175 17.6333 257.628 17.26C258.095 16.9 258.468 16.48 258.748 16C259.028 15.52 259.201 14.96 259.268 14.32H254.728V13.16H259.308V11.44H262.888V13.16H267.588V14.32ZM290.417 14.84H288.037C287.731 14.84 287.524 14.78 287.417 14.66C287.311 14.54 287.257 14.3467 287.257 14.08V11.46H284.377C284.017 11.9267 283.524 12.2933 282.897 12.56C282.271 12.8133 281.531 12.94 280.677 12.94C279.944 12.94 279.291 12.8467 278.717 12.66C278.157 12.46 277.677 12.1867 277.277 11.84C276.891 11.4933 276.597 11.0867 276.397 10.62C276.197 10.14 276.097 9.61333 276.097 9.04C276.097 7.89333 276.491 6.98667 277.277 6.32C278.077 5.65333 279.211 5.32 280.677 5.32C281.544 5.32 282.291 5.44 282.917 5.68C283.544 5.92 284.037 6.26 284.397 6.7H287.257V2.04H290.417V14.84ZM281.517 18.6H290.517V19.6H278.957C278.624 19.6 278.404 19.5067 278.297 19.32C278.204 19.1467 278.157 18.9267 278.157 18.66V13.88H281.517V18.6ZM275.597 4.66V3.5H279.017V1.68H282.337V3.5H285.677V4.66H275.597ZM280.677 6.48C280.211 6.48 279.837 6.66667 279.557 7.04C279.291 7.41333 279.157 8.08 279.157 9.04C279.157 10.0133 279.291 10.7133 279.557 11.14C279.837 11.5667 280.211 11.78 280.677 11.78C281.144 11.78 281.511 11.5667 281.777 11.14C282.057 10.7133 282.197 10.0133 282.197 9.04C282.197 8.08 282.057 7.41333 281.777 7.04C281.511 6.66667 281.144 6.48 280.677 6.48ZM285.177 9.04C285.177 9.26667 285.157 9.48667 285.117 9.7C285.091 9.91333 285.044 10.1133 284.977 10.3H287.257V7.86H284.997C285.117 8.24667 285.177 8.64 285.177 9.04ZM302.089 3.82H299.309V4.88C299.309 5.68 299.402 6.36667 299.589 6.94C299.776 7.5 300.036 7.99333 300.369 8.42C300.716 8.83333 301.122 9.19333 301.589 9.5C302.069 9.79333 302.602 10.0733 303.189 10.34L302.649 11.3C301.476 10.9933 300.496 10.5733 299.709 10.04C298.936 9.50667 298.289 8.88 297.769 8.16C297.196 9.06667 296.529 9.83333 295.769 10.46C295.009 11.0733 294.089 11.5533 293.009 11.9L292.449 10.94C292.929 10.7133 293.389 10.44 293.829 10.12C294.282 9.78667 294.676 9.38 295.009 8.9C295.356 8.42 295.629 7.85333 295.829 7.2C296.042 6.53333 296.149 5.75333 296.149 4.86V3.82H293.089V2.66H302.089V3.82ZM307.049 6.36H309.109V7.36H307.049V11.82H304.649C304.342 11.82 304.136 11.76 304.029 11.64C303.922 11.52 303.869 11.3267 303.869 11.06V2.04H307.049V6.36ZM298.049 16.26C298.049 16.8067 298.122 17.2667 298.269 17.64C298.416 18.0267 298.622 18.3333 298.889 18.56C299.156 18.8 299.469 18.9667 299.829 19.06C300.189 19.1667 300.589 19.22 301.029 19.22C301.456 19.22 301.849 19.1667 302.209 19.06C302.582 18.9667 302.902 18.8 303.169 18.56C303.436 18.3333 303.642 18.0267 303.789 17.64C303.936 17.2667 304.009 16.8067 304.009 16.26C304.009 15.7 303.936 15.2333 303.789 14.86C303.642 14.4867 303.436 14.1867 303.169 13.96C302.902 13.72 302.582 13.5533 302.209 13.46C301.849 13.3533 301.456 13.3 301.029 13.3C300.589 13.3 300.189 13.3533 299.829 13.46C299.469 13.5533 299.156 13.72 298.889 13.96C298.622 14.1867 298.416 14.4867 298.269 14.86C298.122 15.2333 298.049 15.7 298.049 16.26ZM294.889 16.26C294.889 15.6067 295.029 15.0333 295.309 14.54C295.602 14.0467 296.016 13.64 296.549 13.32C297.082 12.9867 297.729 12.74 298.489 12.58C299.249 12.4067 300.096 12.32 301.029 12.32C301.962 12.32 302.802 12.4067 303.549 12.58C304.309 12.74 304.956 12.9867 305.489 13.32C306.022 13.64 306.436 14.0467 306.729 14.54C307.022 15.0333 307.169 15.6067 307.169 16.26C307.169 16.9133 307.022 17.4867 306.729 17.98C306.436 18.4733 306.022 18.88 305.489 19.2C304.956 19.5333 304.309 19.78 303.549 19.94C302.802 20.1133 301.962 20.2 301.029 20.2C300.096 20.2 299.249 20.1133 298.489 19.94C297.729 19.78 297.082 19.5333 296.549 19.2C296.016 18.88 295.602 18.4733 295.309 17.98C295.029 17.4867 294.889 16.9133 294.889 16.26ZM325.198 19.6H322.378C321.938 19.6 321.718 19.3733 321.718 18.92V12.72H315.838V11.56H325.678C325.758 10.9867 325.832 10.4333 325.898 9.9C325.978 9.36667 326.038 8.82667 326.078 8.28C326.132 7.72 326.172 7.13333 326.198 6.52C326.225 5.89333 326.232 5.2 326.218 4.44V3.92H316.658V2.76H328.558C328.985 2.76 329.265 2.88 329.398 3.12C329.532 3.36 329.598 3.61333 329.598 3.88L329.538 5.08C329.485 5.94667 329.385 6.7 329.238 7.34C329.092 7.96667 328.918 8.52667 328.718 9.02C328.532 9.5 328.325 9.94 328.098 10.34C327.872 10.74 327.652 11.1467 327.438 11.56H331.078V12.72H325.198V19.6ZM339.784 17.74H332.844V2.56H339.144C339.384 2.56 339.55 2.61333 339.644 2.72C339.737 2.82667 339.784 3.01333 339.784 3.28V17.74ZM335.624 16.58H337.104V3.72H335.624V16.58ZM344.724 1.96H347.404V19.6H345.284C344.91 19.6 344.724 19.42 344.724 19.06V10.02H343.564V19.6H341.424C341.224 19.6 341.084 19.5467 341.004 19.44C340.924 19.3333 340.884 19.2133 340.884 19.08V1.96H343.564V9.02H344.724V1.96Z" fill="#FF5050"/>
<rect width="3" height="20" transform="matrix(-1 0 0 1 98 1)" fill="#FF5050"/>
<path d="M9.8 37.82H7.02V38.88C7.02 39.68 7.11333 40.3667 7.3 40.94C7.48667 41.5 7.74667 41.9933 8.08 42.42C8.42667 42.8333 8.83333 43.1933 9.3 43.5C9.78 43.7933 10.3133 44.0733 10.9 44.34L10.36 45.3C9.18667 44.9933 8.20667 44.5733 7.42 44.04C6.64667 43.5067 6 42.88 5.48 42.16C4.90667 43.0667 4.24 43.8333 3.48 44.46C2.72 45.0733 1.8 45.5533 0.72 45.9L0.16 44.94C0.64 44.7133 1.1 44.44 1.54 44.12C1.99333 43.7867 2.38667 43.38 2.72 42.9C3.06667 42.42 3.34 41.8533 3.54 41.2C3.75333 40.5333 3.86 39.7533 3.86 38.86V37.82H0.8V36.66H9.8V37.82ZM14.76 40.36H16.82V41.36H14.76V45.82H12.36C12.0533 45.82 11.8467 45.76 11.74 45.64C11.6333 45.52 11.58 45.3267 11.58 45.06V36.04H14.76V40.36ZM5.76 50.26C5.76 50.8067 5.83333 51.2667 5.98 51.64C6.12667 52.0267 6.33333 52.3333 6.6 52.56C6.86667 52.8 7.18 52.9667 7.54 53.06C7.9 53.1667 8.3 53.22 8.74 53.22C9.16667 53.22 9.56 53.1667 9.92 53.06C10.2933 52.9667 10.6133 52.8 10.88 52.56C11.1467 52.3333 11.3533 52.0267 11.5 51.64C11.6467 51.2667 11.72 50.8067 11.72 50.26C11.72 49.7 11.6467 49.2333 11.5 48.86C11.3533 48.4867 11.1467 48.1867 10.88 47.96C10.6133 47.72 10.2933 47.5533 9.92 47.46C9.56 47.3533 9.16667 47.3 8.74 47.3C8.3 47.3 7.9 47.3533 7.54 47.46C7.18 47.5533 6.86667 47.72 6.6 47.96C6.33333 48.1867 6.12667 48.4867 5.98 48.86C5.83333 49.2333 5.76 49.7 5.76 50.26ZM2.6 50.26C2.6 49.6067 2.74 49.0333 3.02 48.54C3.31333 48.0467 3.72667 47.64 4.26 47.32C4.79333 46.9867 5.44 46.74 6.2 46.58C6.96 46.4067 7.80667 46.32 8.74 46.32C9.67333 46.32 10.5133 46.4067 11.26 46.58C12.02 46.74 12.6667 46.9867 13.2 47.32C13.7333 47.64 14.1467 48.0467 14.44 48.54C14.7333 49.0333 14.88 49.6067 14.88 50.26C14.88 50.9133 14.7333 51.4867 14.44 51.98C14.1467 52.4733 13.7333 52.88 13.2 53.2C12.6667 53.5333 12.02 53.78 11.26 53.94C10.5133 54.1133 9.67333 54.2 8.74 54.2C7.80667 54.2 6.96 54.1133 6.2 53.94C5.44 53.78 4.79333 53.5333 4.26 53.2C3.72667 52.88 3.31333 52.4733 3.02 51.98C2.74 51.4867 2.6 50.9133 2.6 50.26ZM17.9517 45.66C18.9917 45.1 19.8584 44.5 20.5517 43.86C21.2451 43.22 21.7984 42.56 22.2117 41.88C22.6384 41.2 22.9384 40.5133 23.1117 39.82C23.2984 39.1133 23.3917 38.4133 23.3917 37.72V36.46H27.0517V37.66C27.0517 38.3667 27.1584 39.0733 27.3717 39.78C27.5851 40.4867 27.9117 41.1667 28.3517 41.82C28.8051 42.4733 29.3717 43.0933 30.0517 43.68C30.7451 44.2667 31.5584 44.7933 32.4917 45.26L31.9117 46.48C31.1917 46.2667 30.5051 45.9867 29.8517 45.64C29.2117 45.2933 28.6117 44.9067 28.0517 44.48C27.4917 44.04 26.9784 43.5667 26.5117 43.06C26.0451 42.5533 25.6317 42.0267 25.2717 41.48C24.9117 42.0933 24.4651 42.6867 23.9317 43.26C23.4117 43.8333 22.8517 44.36 22.2517 44.84C21.6517 45.32 21.0251 45.7333 20.3717 46.08C19.7317 46.4267 19.1117 46.6867 18.5117 46.86L17.9517 45.66ZM32.8517 52.24H17.6117V51.08H23.4917V45.96H26.9717V51.08H32.8517V52.24Z" fill="#FF5050"/>
<path d="M73.76 42.74H76.86V36.06H79.94V53.66H77.54C77.0867 53.66 76.86 53.42 76.86 52.94V43.9H73.76V42.74ZM64.9 51.48C65.7933 50.7333 66.4933 49.94 67 49.1C67.5067 48.26 67.8867 47.3933 68.14 46.5C68.4067 45.5933 68.5733 44.6733 68.64 43.74C68.7067 42.7933 68.74 41.8467 68.74 40.9V36.46H72V40.06C72 41.34 72.0333 42.5067 72.1 43.56C72.1667 44.6 72.3267 45.5667 72.58 46.46C72.8467 47.34 73.2333 48.16 73.74 48.92C74.26 49.6667 74.96 50.3933 75.84 51.1L75.16 51.96C74.7067 51.6933 74.24 51.36 73.76 50.96C73.28 50.56 72.8267 50.12 72.4 49.64C71.9733 49.16 71.58 48.6533 71.22 48.12C70.8733 47.5867 70.6 47.0533 70.4 46.52C70.2133 47.1067 69.9333 47.7 69.56 48.3C69.2 48.9 68.7933 49.4667 68.34 50C67.8867 50.5333 67.4067 51 66.9 51.4C66.3933 51.8 65.9067 52.0867 65.44 52.26L64.9 51.48ZM88.4917 46.04V44.5H82.6117V43.34H97.8517V44.5H91.9717V46.04H96.5717V50.34H87.2317V52.44H96.7917V53.6H84.6917C84.3584 53.6 84.1384 53.52 84.0317 53.36C83.9251 53.2 83.8717 52.9867 83.8717 52.72V49.16H93.1917V47.2H83.8717V46.04H88.4917ZM90.2117 42.62C89.2784 42.62 88.4117 42.56 87.6117 42.44C86.8251 42.32 86.1384 42.1267 85.5517 41.86C84.9651 41.5933 84.5051 41.24 84.1717 40.8C83.8384 40.36 83.6717 39.8267 83.6717 39.2C83.6717 38.5733 83.8384 38.0467 84.1717 37.62C84.5051 37.18 84.9651 36.8267 85.5517 36.56C86.1384 36.28 86.8251 36.08 87.6117 35.96C88.4117 35.84 89.2784 35.78 90.2117 35.78C91.1451 35.78 92.0051 35.84 92.7917 35.96C93.5917 36.08 94.2851 36.28 94.8717 36.56C95.4584 36.8267 95.9184 37.18 96.2517 37.62C96.5851 38.0467 96.7517 38.5733 96.7517 39.2C96.7517 39.8267 96.5851 40.36 96.2517 40.8C95.9184 41.24 95.4584 41.5933 94.8717 41.86C94.2851 42.1267 93.5917 42.32 92.7917 42.44C92.0051 42.56 91.1451 42.62 90.2117 42.62ZM90.2117 41.52C91.3984 41.52 92.2517 41.3133 92.7717 40.9C93.3051 40.4733 93.5717 39.9067 93.5717 39.2C93.5717 38.4933 93.3051 37.9333 92.7717 37.52C92.2517 37.0933 91.3984 36.88 90.2117 36.88C89.0251 36.88 88.1651 37.0933 87.6317 37.52C87.1117 37.9333 86.8517 38.4933 86.8517 39.2C86.8517 39.9067 87.1117 40.4733 87.6317 40.9C88.1651 41.3133 89.0251 41.52 90.2117 41.52ZM100.477 36.36H112.877V37.54H103.837V39.44H112.357V40.62H103.837V42.38H112.977V43.56H100.477V36.36ZM113.017 53.6H109.637V49.22H100.237V48.06H113.017V53.6ZM99.057 46.36V45.18H114.297V46.36H99.057ZM130.042 44.76H127.662C127.356 44.76 127.149 44.7 127.042 44.58C126.936 44.46 126.882 44.2667 126.882 44V42.54H124.502V44.22H115.802V36.26H118.862V39.12H121.542V36.26H124.502V37.98H126.882V36.04H130.042V44.76ZM121.362 52.6H130.362V53.6H118.802C118.469 53.6 118.249 53.5067 118.142 53.32C118.036 53.1467 117.982 52.9267 117.982 52.66V49.06H126.702V46.66H117.982V45.66H130.062V50.04H121.362V52.6ZM121.542 40.28H118.862V43.06H121.542V40.28ZM124.502 41.56H126.882V38.96H124.502V41.56ZM131.814 51.48C132.707 50.7333 133.407 49.94 133.914 49.1C134.421 48.26 134.801 47.3933 135.054 46.5C135.321 45.5933 135.487 44.6733 135.554 43.74C135.621 42.7933 135.654 41.8467 135.654 40.9V36.46H138.914V40.06C138.914 41.34 138.947 42.5067 139.014 43.56C139.081 44.6 139.241 45.5667 139.494 46.46C139.761 47.34 140.147 48.16 140.654 48.92C141.174 49.6667 141.874 50.3933 142.754 51.1L142.074 51.96C141.621 51.6933 141.154 51.36 140.674 50.96C140.194 50.56 139.741 50.12 139.314 49.64C138.887 49.16 138.494 48.6533 138.134 48.12C137.787 47.5867 137.514 47.0533 137.314 46.52C137.127 47.1067 136.847 47.7 136.474 48.3C136.114 48.9 135.707 49.4667 135.254 50C134.801 50.5333 134.321 51 133.814 51.4C133.307 51.8 132.821 52.0867 132.354 52.26L131.814 51.48ZM146.674 53.66H144.254C143.801 53.66 143.574 53.4333 143.574 52.98V36.06H146.674V53.66ZM155.763 36.64H163.343C163.57 36.64 163.73 36.6933 163.823 36.8C163.917 36.9067 163.963 37.0933 163.963 37.36V38.16C163.963 39.24 163.737 40.2133 163.283 41.08C162.843 41.9467 162.237 42.7 161.463 43.34C160.69 43.98 159.79 44.5 158.763 44.9C157.75 45.2867 156.67 45.54 155.523 45.66L155.223 44.9C156.143 44.7 156.957 44.4 157.663 44C158.37 43.6 158.963 43.12 159.443 42.56C159.923 42 160.283 41.3733 160.523 40.68C160.777 39.9733 160.903 39.22 160.903 38.42V37.64H155.763V36.64ZM169.623 40.36H171.683V41.36H169.623V45.82H167.223C166.917 45.82 166.71 45.76 166.603 45.64C166.497 45.52 166.443 45.3267 166.443 45.06V36.04H169.623V40.36ZM160.623 50.26C160.623 50.8067 160.697 51.2667 160.843 51.64C160.99 52.0267 161.197 52.3333 161.463 52.56C161.73 52.8 162.043 52.9667 162.403 53.06C162.763 53.1667 163.163 53.22 163.603 53.22C164.03 53.22 164.423 53.1667 164.783 53.06C165.157 52.9667 165.477 52.8 165.743 52.56C166.01 52.3333 166.217 52.0267 166.363 51.64C166.51 51.2667 166.583 50.8067 166.583 50.26C166.583 49.7 166.51 49.2333 166.363 48.86C166.217 48.4867 166.01 48.1867 165.743 47.96C165.477 47.72 165.157 47.5533 164.783 47.46C164.423 47.3533 164.03 47.3 163.603 47.3C163.163 47.3 162.763 47.3533 162.403 47.46C162.043 47.5533 161.73 47.72 161.463 47.96C161.197 48.1867 160.99 48.4867 160.843 48.86C160.697 49.2333 160.623 49.7 160.623 50.26ZM157.463 50.26C157.463 49.6067 157.603 49.0333 157.883 48.54C158.177 48.0467 158.59 47.64 159.123 47.32C159.657 46.9867 160.303 46.74 161.063 46.58C161.823 46.4067 162.67 46.32 163.603 46.32C164.537 46.32 165.377 46.4067 166.123 46.58C166.883 46.74 167.53 46.9867 168.063 47.32C168.597 47.64 169.01 48.0467 169.303 48.54C169.597 49.0333 169.743 49.6067 169.743 50.26C169.743 50.9133 169.597 51.4867 169.303 51.98C169.01 52.4733 168.597 52.88 168.063 53.2C167.53 53.5333 166.883 53.78 166.123 53.94C165.377 54.1133 164.537 54.2 163.603 54.2C162.67 54.2 161.823 54.1133 161.063 53.94C160.303 53.78 159.657 53.5333 159.123 53.2C158.59 52.88 158.177 52.4733 157.883 51.98C157.603 51.4867 157.463 50.9133 157.463 50.26ZM182.115 44.74H172.995V36.44H176.175V43.56H182.115V44.74ZM186.635 40.36H188.695V41.36H186.635V45.82H184.235C183.928 45.82 183.722 45.76 183.615 45.64C183.508 45.52 183.455 45.3267 183.455 45.06V36.04H186.635V40.36ZM174.155 46.76H186.635V53.6H174.955C174.635 53.6 174.422 53.5067 174.315 53.32C174.208 53.1467 174.155 52.9267 174.155 52.66V46.76ZM177.315 52.6H183.455V47.76H177.315V52.6ZM198.847 53.6H196.027C195.587 53.6 195.367 53.3733 195.367 52.92V46.72H189.487V45.56H199.327C199.407 44.9867 199.48 44.4333 199.547 43.9C199.627 43.3667 199.687 42.8267 199.727 42.28C199.78 41.72 199.82 41.1333 199.847 40.52C199.873 39.8933 199.88 39.2 199.867 38.44V37.92H190.307V36.76H202.207C202.633 36.76 202.913 36.88 203.047 37.12C203.18 37.36 203.247 37.6133 203.247 37.88L203.187 39.08C203.133 39.9467 203.033 40.7 202.887 41.34C202.74 41.9667 202.567 42.5267 202.367 43.02C202.18 43.5 201.973 43.94 201.747 44.34C201.52 44.74 201.3 45.1467 201.087 45.56H204.727V46.72H198.847V53.6ZM226.41 45.86H224.03C223.723 45.86 223.516 45.8 223.41 45.68C223.303 45.56 223.25 45.3667 223.25 45.1V43.14H220.75C220.403 43.9 219.87 44.4533 219.15 44.8C218.443 45.1333 217.59 45.3 216.59 45.3C215.883 45.3 215.236 45.2133 214.65 45.04C214.063 44.8667 213.563 44.6 213.15 44.24C212.736 43.8667 212.416 43.4 212.19 42.84C211.963 42.2667 211.85 41.58 211.85 40.78C211.85 39.98 211.963 39.3 212.19 38.74C212.416 38.1667 212.736 37.7 213.15 37.34C213.563 36.9667 214.063 36.6933 214.65 36.52C215.236 36.3467 215.883 36.26 216.59 36.26C217.616 36.26 218.49 36.44 219.21 36.8C219.943 37.16 220.476 37.74 220.81 38.54H223.25V36.04H226.41V45.86ZM214.23 50.26C214.23 49.6067 214.37 49.0333 214.65 48.54C214.943 48.0467 215.356 47.64 215.89 47.32C216.423 46.9867 217.063 46.74 217.81 46.58C218.57 46.4067 219.416 46.32 220.35 46.32C221.283 46.32 222.13 46.4067 222.89 46.58C223.65 46.74 224.296 46.9867 224.83 47.32C225.363 47.64 225.776 48.0467 226.07 48.54C226.363 49.0333 226.51 49.6067 226.51 50.26C226.51 50.9133 226.363 51.4867 226.07 51.98C225.776 52.4733 225.363 52.88 224.83 53.2C224.296 53.5333 223.65 53.78 222.89 53.94C222.13 54.1133 221.283 54.2 220.35 54.2C219.416 54.2 218.57 54.1133 217.81 53.94C217.063 53.78 216.423 53.5333 215.89 53.2C215.356 52.88 214.943 52.4733 214.65 51.98C214.37 51.4867 214.23 50.9133 214.23 50.26ZM217.39 50.26C217.39 50.8067 217.463 51.2667 217.61 51.64C217.756 52.0267 217.956 52.3333 218.21 52.56C218.476 52.8 218.79 52.9667 219.15 53.06C219.523 53.1667 219.923 53.22 220.35 53.22C220.79 53.22 221.19 53.1667 221.55 53.06C221.923 52.9667 222.243 52.8 222.51 52.56C222.776 52.3333 222.983 52.0267 223.13 51.64C223.276 51.2667 223.35 50.8067 223.35 50.26C223.35 49.7 223.276 49.2333 223.13 48.86C222.983 48.4867 222.776 48.1867 222.51 47.96C222.243 47.72 221.923 47.5533 221.55 47.46C221.19 47.3533 220.79 47.3 220.35 47.3C219.923 47.3 219.523 47.3533 219.15 47.46C218.79 47.5533 218.476 47.72 218.21 47.96C217.956 48.1867 217.756 48.4867 217.61 48.86C217.463 49.2333 217.39 49.7 217.39 50.26ZM218.27 40.78C218.27 39.6333 218.156 38.7867 217.93 38.24C217.716 37.6933 217.27 37.42 216.59 37.42C215.91 37.42 215.456 37.6933 215.23 38.24C215.016 38.7867 214.91 39.6333 214.91 40.78C214.91 41.9267 215.016 42.7733 215.23 43.32C215.456 43.8667 215.91 44.14 216.59 44.14C217.27 44.14 217.716 43.8667 217.93 43.32C218.156 42.7733 218.27 41.9267 218.27 40.78ZM221.23 40.78C221.23 41.0467 221.216 41.2933 221.19 41.52C221.163 41.7333 221.13 41.9467 221.09 42.16H223.25V39.52H221.11C221.19 39.9067 221.23 40.3267 221.23 40.78ZM236.481 54.2C235.548 54.2 234.681 54.1333 233.881 54C233.095 53.88 232.408 53.68 231.821 53.4C231.235 53.12 230.775 52.7533 230.441 52.3C230.108 51.8467 229.941 51.2867 229.941 50.62C229.941 49.9667 230.108 49.4133 230.441 48.96C230.775 48.5067 231.235 48.14 231.821 47.86C232.408 47.58 233.095 47.38 233.881 47.26C234.681 47.1267 235.548 47.06 236.481 47.06C237.415 47.06 238.275 47.1267 239.061 47.26C239.861 47.38 240.555 47.58 241.141 47.86C241.728 48.14 242.188 48.5067 242.521 48.96C242.855 49.4133 243.021 49.9667 243.021 50.62C243.021 51.2867 242.855 51.8467 242.521 52.3C242.188 52.7533 241.728 53.12 241.141 53.4C240.555 53.68 239.861 53.88 239.061 54C238.275 54.1333 237.415 54.2 236.481 54.2ZM230.301 36.36H242.701V37.54H233.661V41.28H242.801V42.46H238.261V44.58H244.121V45.74H228.881V44.58H234.781V42.46H230.301V36.36ZM236.481 53.04C237.668 53.04 238.521 52.8333 239.041 52.42C239.575 52.02 239.841 51.42 239.841 50.62C239.841 49.82 239.575 49.22 239.041 48.82C238.521 48.42 237.668 48.22 236.481 48.22C235.295 48.22 234.435 48.42 233.901 48.82C233.381 49.22 233.121 49.82 233.121 50.62C233.121 51.42 233.381 52.02 233.901 52.42C234.435 52.8333 235.295 53.04 236.481 53.04ZM257.507 35.96H260.167V53.6H258.047C257.687 53.6 257.507 53.42 257.507 53.06V44.02H256.327V53.6H254.187C253.987 53.6 253.847 53.5467 253.767 53.44C253.687 53.3333 253.647 53.2133 253.647 53.08V35.96H256.327V43.02H257.507V35.96ZM252.487 51.74H245.587V36.56H252.207V37.72H248.507V50.58H252.487V51.74ZM277.578 52.24H262.338V51.08H268.238V46.9H263.558V41.06H272.778V37.62H263.558V36.46H275.518C275.758 36.46 275.925 36.5133 276.018 36.62C276.112 36.7267 276.158 36.9133 276.158 37.18V42.22H266.918V45.72H276.358V46.9H271.718V51.08H277.578V52.24ZM285.501 49.52C285.808 49.7867 286.208 50.0067 286.701 50.18C287.208 50.34 287.701 50.42 288.181 50.42C288.594 50.42 288.968 50.3733 289.301 50.28C289.634 50.1867 289.914 50.0067 290.141 49.74C290.381 49.46 290.561 49.08 290.681 48.6C290.814 48.12 290.881 47.4933 290.881 46.72C290.881 45.9467 290.821 45.3067 290.701 44.8C290.581 44.2933 290.408 43.8933 290.181 43.6C289.968 43.2933 289.708 43.0867 289.401 42.98C289.094 42.86 288.754 42.8 288.381 42.8C287.874 42.8 287.401 42.88 286.961 43.04C286.521 43.2 286.108 43.4133 285.721 43.68C285.654 43.72 285.574 43.76 285.481 43.8C285.388 43.84 285.301 43.8533 285.221 43.84C285.141 43.8133 285.074 43.7533 285.021 43.66C284.981 43.5667 284.961 43.4133 284.961 43.2L285.141 37.7C285.154 37.5133 285.161 37.3533 285.161 37.22C285.161 37.0867 285.161 36.98 285.161 36.9H292.941V37.78H287.921L287.781 41.98C288.061 41.94 288.394 41.92 288.781 41.92C289.354 41.92 289.948 42.0267 290.561 42.24C291.188 42.4533 291.754 42.7667 292.261 43.18C292.768 43.5933 293.181 44.0933 293.501 44.68C293.834 45.2667 294.001 45.9267 294.001 46.66C294.001 47.4333 293.821 48.1133 293.461 48.7C293.114 49.2733 292.661 49.7533 292.101 50.14C291.541 50.5267 290.914 50.8133 290.221 51C289.541 51.2 288.861 51.3 288.181 51.3C287.634 51.3 287.068 51.2133 286.481 51.04C285.908 50.88 285.394 50.6267 284.941 50.28L285.501 49.52ZM294.872 36.9H299.572V51H297.412C297.106 51 296.866 50.92 296.692 50.76C296.532 50.5867 296.452 50.36 296.452 50.08V37.78H294.872V36.9ZM303.703 42.62H304.423C304.917 42.62 305.317 42.56 305.623 42.44C305.943 42.3067 306.19 42.1267 306.363 41.9C306.537 41.6733 306.657 41.4 306.723 41.08C306.79 40.76 306.823 40.4067 306.823 40.02C306.823 39.6333 306.797 39.2867 306.743 38.98C306.703 38.66 306.61 38.3933 306.463 38.18C306.33 37.9667 306.137 37.8067 305.883 37.7C305.643 37.58 305.323 37.52 304.923 37.52C304.603 37.52 304.21 37.5867 303.743 37.72C303.29 37.84 302.757 38.1267 302.143 38.58L301.943 37.66C302.13 37.5 302.35 37.3533 302.603 37.22C302.857 37.0867 303.117 36.98 303.383 36.9C303.663 36.8067 303.937 36.7333 304.203 36.68C304.47 36.6267 304.71 36.6 304.923 36.6C305.603 36.6 306.217 36.68 306.763 36.84C307.323 37 307.79 37.2333 308.163 37.54C308.55 37.8333 308.843 38.1867 309.043 38.6C309.257 39.0133 309.363 39.4667 309.363 39.96C309.363 40.7867 309.11 41.4667 308.603 42C308.097 42.5333 307.337 42.8867 306.323 43.06C306.937 43.1267 307.497 43.2733 308.003 43.5C308.523 43.7133 308.97 44 309.343 44.36C309.717 44.7067 310.01 45.12 310.223 45.6C310.437 46.0667 310.543 46.5867 310.543 47.16C310.543 47.9067 310.37 48.5467 310.023 49.08C309.677 49.6 309.23 50.0267 308.683 50.36C308.15 50.68 307.543 50.9133 306.863 51.06C306.197 51.22 305.537 51.3 304.883 51.3C304.337 51.3 303.797 51.2 303.263 51C302.73 50.7867 302.29 50.5467 301.943 50.28L302.443 49.5C302.87 49.8467 303.303 50.0867 303.743 50.22C304.183 50.3533 304.563 50.42 304.883 50.42C305.417 50.42 305.85 50.3333 306.183 50.16C306.517 49.9867 306.77 49.7533 306.943 49.46C307.13 49.1533 307.25 48.8067 307.303 48.42C307.37 48.02 307.403 47.6 307.403 47.16C307.39 46.5467 307.343 46.0133 307.263 45.56C307.183 45.0933 307.037 44.7067 306.823 44.4C306.623 44.0933 306.337 43.8667 305.963 43.72C305.59 43.56 305.103 43.4867 304.503 43.5H303.703V42.62Z" fill="#FF5050"/>
<rect width="3" height="20" transform="matrix(-1 0 0 1 51 35)" fill="#FF5050"/>
<path d="M0.82 70.66H8C8.34667 70.66 8.6 70.74 8.76 70.9C8.93333 71.06 9.02 71.3533 9.02 71.78V76.44C9.02 77.8267 8.78 79.08 8.3 80.2C7.83333 81.3067 7.20667 82.28 6.42 83.12C5.63333 83.96 4.73333 84.66 3.72 85.22C2.70667 85.78 1.66 86.1933 0.58 86.46L0.26 85.78C1.26 85.3667 2.12 84.8333 2.84 84.18C3.57333 83.5267 4.17333 82.7933 4.64 81.98C5.12 81.1667 5.47333 80.2933 5.7 79.36C5.92667 78.4267 6.04 77.4733 6.04 76.5V71.82H0.82V70.66ZM14.76 87.66H12.34C11.8867 87.66 11.66 87.4333 11.66 86.98V70.06H14.76V87.66ZM17.9117 70.64H25.4917C25.7184 70.64 25.8784 70.6933 25.9717 70.8C26.0651 70.9067 26.1117 71.0933 26.1117 71.36V73.28C26.1117 74.3467 25.8851 75.3 25.4317 76.14C24.9917 76.98 24.3851 77.7133 23.6117 78.34C22.8384 78.9533 21.9384 79.4467 20.9117 79.82C19.8984 80.1933 18.8184 80.44 17.6717 80.56L17.3517 79.9C18.2717 79.7 19.0851 79.3933 19.7917 78.98C20.4984 78.5667 21.0917 78.0733 21.5717 77.5C22.0517 76.9267 22.4184 76.2867 22.6717 75.58C22.9251 74.8733 23.0517 74.1267 23.0517 73.34V71.64H17.9117V70.64ZM31.7717 75.5H33.8317V76.5H31.7717V82.68H29.3717C29.0651 82.68 28.8584 82.62 28.7517 82.5C28.6451 82.38 28.5917 82.1867 28.5917 81.92V70.04H31.7717V75.5ZM22.9517 86.6H32.0517V87.6H20.3917C20.0717 87.6 19.8584 87.5067 19.7517 87.32C19.6451 87.1467 19.5917 86.9267 19.5917 86.66V81.54H22.9517V86.6ZM40.8609 78.18V70.44H48.9209C49.1609 70.44 49.3276 70.4933 49.4209 70.6C49.5143 70.7067 49.5609 70.8933 49.5609 71.16V78.18H40.8609ZM43.9209 77.02H46.6009V71.6H43.9209V77.02ZM55.1009 79.48H52.7209C52.4143 79.48 52.2076 79.42 52.1009 79.3C51.9943 79.18 51.9409 78.9867 51.9409 78.72V70.04H55.1009V79.48ZM55.2209 82.32H50.5409C50.6076 82.9733 50.7876 83.5333 51.0809 84C51.3876 84.4533 51.7743 84.8467 52.2409 85.18C52.7076 85.5267 53.2409 85.8267 53.8409 86.08C54.4543 86.3333 55.1076 86.5667 55.8009 86.78L55.2209 87.82C54.6209 87.6733 54.0143 87.4733 53.4009 87.22C52.7876 86.98 52.1943 86.7 51.6209 86.38C51.0609 86.06 50.5343 85.7067 50.0409 85.32C49.5609 84.9333 49.1409 84.52 48.7809 84.08C48.4209 84.5733 47.9943 85.02 47.5009 85.42C47.0209 85.8333 46.4943 86.2067 45.9209 86.54C45.3609 86.8733 44.7609 87.16 44.1209 87.4C43.4943 87.6533 42.8609 87.86 42.2209 88.02L41.6409 87C42.3609 86.76 43.0276 86.5 43.6409 86.22C44.2676 85.9533 44.8076 85.6333 45.2609 85.26C45.7276 84.9 46.1009 84.48 46.3809 84C46.6609 83.52 46.8343 82.96 46.9009 82.32H42.3609V81.16H46.9409V79.44H50.5209V81.16H55.2209V82.32ZM63.4902 74.38C63.4902 73.6333 63.6035 73 63.8302 72.48C64.0568 71.96 64.3768 71.5333 64.7902 71.2C65.2035 70.8667 65.7035 70.6267 66.2902 70.48C66.8768 70.3333 67.5235 70.26 68.2302 70.26C68.9502 70.26 69.5968 70.3333 70.1702 70.48C70.7435 70.6267 71.2302 70.8667 71.6302 71.2C72.0302 71.5333 72.3368 71.96 72.5502 72.48C72.7635 73 72.8702 73.6333 72.8702 74.38C72.8702 75.1267 72.7635 75.7667 72.5502 76.3C72.3368 76.82 72.0302 77.2467 71.6302 77.58C71.2302 77.9 70.7435 78.14 70.1702 78.3C69.5968 78.4467 68.9502 78.52 68.2302 78.52C67.5235 78.52 66.8768 78.4467 66.2902 78.3C65.7035 78.14 65.2035 77.9 64.7902 77.58C64.3768 77.2467 64.0568 76.82 63.8302 76.3C63.6035 75.7667 63.4902 75.1267 63.4902 74.38ZM69.9102 74.38C69.9102 73.4333 69.7968 72.7067 69.5702 72.2C69.3568 71.68 68.9102 71.42 68.2302 71.42C67.5502 71.42 67.0968 71.68 66.8702 72.2C66.6568 72.7067 66.5502 73.4333 66.5502 74.38C66.5502 75.3267 66.6568 76.06 66.8702 76.58C67.0968 77.1 67.5502 77.36 68.2302 77.36C68.9102 77.36 69.3568 77.1 69.5702 76.58C69.7968 76.06 69.9102 75.3267 69.9102 74.38ZM78.0502 79H75.6702C75.3635 79 75.1568 78.94 75.0502 78.82C74.9435 78.7 74.8902 78.5067 74.8902 78.24V70.04H78.0502V79ZM65.5902 80.02H68.7502V82.54H74.8902V80.02H78.0502V87.6H66.3902C66.0702 87.6 65.8568 87.5067 65.7502 87.32C65.6435 87.1467 65.5902 86.9267 65.5902 86.66V80.02ZM74.8902 86.44V83.7H68.7502V86.44H74.8902ZM89.7219 71.82H86.9419V72.88C86.9419 73.68 87.0352 74.3667 87.2219 74.94C87.4085 75.5 87.6685 75.9933 88.0019 76.42C88.3485 76.8333 88.7552 77.1933 89.2219 77.5C89.7019 77.7933 90.2352 78.0733 90.8219 78.34L90.2819 79.3C89.1085 78.9933 88.1285 78.5733 87.3419 78.04C86.5685 77.5067 85.9219 76.88 85.4019 76.16C84.8285 77.0667 84.1619 77.8333 83.4019 78.46C82.6419 79.0733 81.7219 79.5533 80.6419 79.9L80.0819 78.94C80.5619 78.7133 81.0219 78.44 81.4619 78.12C81.9152 77.7867 82.3085 77.38 82.6419 76.9C82.9885 76.42 83.2619 75.8533 83.4619 75.2C83.6752 74.5333 83.7819 73.7533 83.7819 72.86V71.82H80.7219V70.66H89.7219V71.82ZM94.6819 74.36H96.7419V75.36H94.6819V79.82H92.2819C91.9752 79.82 91.7685 79.76 91.6619 79.64C91.5552 79.52 91.5019 79.3267 91.5019 79.06V70.04H94.6819V74.36ZM85.6819 84.26C85.6819 84.8067 85.7552 85.2667 85.9019 85.64C86.0485 86.0267 86.2552 86.3333 86.5219 86.56C86.7885 86.8 87.1019 86.9667 87.4619 87.06C87.8219 87.1667 88.2219 87.22 88.6619 87.22C89.0885 87.22 89.4819 87.1667 89.8419 87.06C90.2152 86.9667 90.5352 86.8 90.8019 86.56C91.0685 86.3333 91.2752 86.0267 91.4219 85.64C91.5685 85.2667 91.6419 84.8067 91.6419 84.26C91.6419 83.7 91.5685 83.2333 91.4219 82.86C91.2752 82.4867 91.0685 82.1867 90.8019 81.96C90.5352 81.72 90.2152 81.5533 89.8419 81.46C89.4819 81.3533 89.0885 81.3 88.6619 81.3C88.2219 81.3 87.8219 81.3533 87.4619 81.46C87.1019 81.5533 86.7885 81.72 86.5219 81.96C86.2552 82.1867 86.0485 82.4867 85.9019 82.86C85.7552 83.2333 85.6819 83.7 85.6819 84.26ZM82.5219 84.26C82.5219 83.6067 82.6619 83.0333 82.9419 82.54C83.2352 82.0467 83.6485 81.64 84.1819 81.32C84.7152 80.9867 85.3619 80.74 86.1219 80.58C86.8819 80.4067 87.7285 80.32 88.6619 80.32C89.5952 80.32 90.4352 80.4067 91.1819 80.58C91.9419 80.74 92.5885 80.9867 93.1219 81.32C93.6552 81.64 94.0685 82.0467 94.3619 82.54C94.6552 83.0333 94.8019 83.6067 94.8019 84.26C94.8019 84.9133 94.6552 85.4867 94.3619 85.98C94.0685 86.4733 93.6552 86.88 93.1219 87.2C92.5885 87.5333 91.9419 87.78 91.1819 87.94C90.4352 88.1133 89.5952 88.2 88.6619 88.2C87.7285 88.2 86.8819 88.1133 86.1219 87.94C85.3619 87.78 84.7152 87.5333 84.1819 87.2C83.6485 86.88 83.2352 86.4733 82.9419 85.98C82.6619 85.4867 82.5219 84.9133 82.5219 84.26ZM102.771 85.48C103.664 84.7333 104.364 83.94 104.871 83.1C105.378 82.26 105.758 81.3933 106.011 80.5C106.278 79.5933 106.444 78.6733 106.511 77.74C106.578 76.7933 106.611 75.8467 106.611 74.9V70.46H109.871V74.06C109.871 75.34 109.904 76.5067 109.971 77.56C110.038 78.6 110.198 79.5667 110.451 80.46C110.718 81.34 111.104 82.16 111.611 82.92C112.131 83.6667 112.831 84.3933 113.711 85.1L113.031 85.96C112.578 85.6933 112.111 85.36 111.631 84.96C111.151 84.56 110.698 84.12 110.271 83.64C109.844 83.16 109.451 82.6533 109.091 82.12C108.744 81.5867 108.471 81.0533 108.271 80.52C108.084 81.1067 107.804 81.7 107.431 82.3C107.071 82.9 106.664 83.4667 106.211 84C105.758 84.5333 105.278 85 104.771 85.4C104.264 85.8 103.778 86.0867 103.311 86.26L102.771 85.48ZM117.631 87.66H115.211C114.758 87.66 114.531 87.4333 114.531 86.98V70.06H117.631V87.66ZM120.783 70.64H128.363C128.589 70.64 128.749 70.6933 128.843 70.8C128.936 70.9067 128.983 71.0933 128.983 71.36V73.28C128.983 74.3467 128.756 75.3 128.303 76.14C127.863 76.98 127.256 77.7133 126.483 78.34C125.709 78.9533 124.809 79.4467 123.783 79.82C122.769 80.1933 121.689 80.44 120.543 80.56L120.223 79.9C121.143 79.7 121.956 79.3933 122.663 78.98C123.369 78.5667 123.963 78.0733 124.443 77.5C124.923 76.9267 125.289 76.2867 125.543 75.58C125.796 74.8733 125.923 74.1267 125.923 73.34V71.64H120.783V70.64ZM134.643 75.5H136.703V76.5H134.643V82.68H132.243C131.936 82.68 131.729 82.62 131.623 82.5C131.516 82.38 131.463 82.1867 131.463 81.92V70.04H134.643V75.5ZM125.823 86.6H134.923V87.6H123.263C122.943 87.6 122.729 87.5067 122.623 87.32C122.516 87.1467 122.463 86.9267 122.463 86.66V81.54H125.823V86.6Z" fill="#FF5050"/>
<path d="M187.452 86H178.092V84.492C178.092 84.1453 178.231 83.7727 178.508 83.374C178.785 82.9753 179.227 82.5073 179.834 81.97C180.215 81.6407 180.666 81.2333 181.186 80.748C181.723 80.2627 182.356 79.6907 183.084 79.032C183.656 78.512 184.081 78.018 184.358 77.55C184.653 77.0647 184.8 76.5187 184.8 75.912C184.8 75.34 184.618 74.898 184.254 74.586C183.89 74.274 183.431 74.118 182.876 74.118C182.287 74.118 181.793 74.3087 181.394 74.69C181.013 75.0713 180.787 75.6087 180.718 76.302L178.196 76.042C178.317 74.8113 178.829 73.832 179.73 73.104C180.631 72.376 181.723 72.012 183.006 72.012C183.838 72.012 184.592 72.168 185.268 72.48C185.944 72.792 186.49 73.234 186.906 73.806C187.322 74.3607 187.53 75.028 187.53 75.808C187.53 76.4147 187.426 77.03 187.218 77.654C187.01 78.278 186.62 78.8673 186.048 79.422C185.823 79.6473 185.467 79.994 184.982 80.462C184.514 80.9127 183.89 81.4933 183.11 82.204C182.798 82.4987 182.495 82.7587 182.2 82.984C181.923 83.2093 181.671 83.452 181.446 83.712H187.452V86ZM194.351 86.208C193.172 86.208 192.227 85.87 191.517 85.194C190.823 84.518 190.312 83.6427 189.983 82.568C189.671 81.4933 189.515 80.3407 189.515 79.11C189.515 77.862 189.671 76.7007 189.983 75.626C190.312 74.534 190.832 73.6587 191.543 73C192.253 72.3413 193.181 72.012 194.325 72.012C195.486 72.012 196.422 72.3327 197.133 72.974C197.843 73.6153 198.355 74.4733 198.667 75.548C198.996 76.6053 199.161 77.784 199.161 79.084C199.161 80.3493 198.996 81.528 198.667 82.62C198.355 83.6947 197.843 84.5613 197.133 85.22C196.422 85.8787 195.495 86.208 194.351 86.208ZM194.325 84.102C195.001 84.102 195.521 83.7033 195.885 82.906C196.266 82.0913 196.457 80.826 196.457 79.11C196.457 77.394 196.266 76.1373 195.885 75.34C195.521 74.5253 194.992 74.118 194.299 74.118C193.64 74.118 193.129 74.5253 192.765 75.34C192.401 76.1373 192.219 77.394 192.219 79.11C192.219 80.826 192.401 82.0913 192.765 82.906C193.146 83.7033 193.666 84.102 194.325 84.102ZM210.557 86H201.197V84.492C201.197 84.1453 201.336 83.7727 201.613 83.374C201.891 82.9753 202.333 82.5073 202.939 81.97C203.321 81.6407 203.771 81.2333 204.291 80.748C204.829 80.2627 205.461 79.6907 206.189 79.032C206.761 78.512 207.186 78.018 207.463 77.55C207.758 77.0647 207.905 76.5187 207.905 75.912C207.905 75.34 207.723 74.898 207.359 74.586C206.995 74.274 206.536 74.118 205.981 74.118C205.392 74.118 204.898 74.3087 204.499 74.69C204.118 75.0713 203.893 75.6087 203.823 76.302L201.301 76.042C201.423 74.8113 201.934 73.832 202.835 73.104C203.737 72.376 204.829 72.012 206.111 72.012C206.943 72.012 207.697 72.168 208.373 72.48C209.049 72.792 209.595 73.234 210.011 73.806C210.427 74.3607 210.635 75.028 210.635 75.808C210.635 76.4147 210.531 77.03 210.323 77.654C210.115 78.278 209.725 78.8673 209.153 79.422C208.928 79.6473 208.573 79.994 208.087 80.462C207.619 80.9127 206.995 81.4933 206.215 82.204C205.903 82.4987 205.6 82.7587 205.305 82.984C205.028 83.2093 204.777 83.452 204.551 83.712H210.557V86ZM222.266 81.346C222.266 82.2647 222.067 83.0967 221.668 83.842C221.27 84.57 220.706 85.1507 219.978 85.584C219.25 86 218.384 86.208 217.378 86.208C216.408 86.208 215.515 85.974 214.7 85.506C213.903 85.0207 213.314 84.2753 212.932 83.27L215.506 82.542C215.662 83.0273 215.914 83.4173 216.26 83.712C216.624 83.9893 217.04 84.128 217.508 84.128C218.098 84.128 218.592 83.8853 218.99 83.4C219.389 82.8973 219.588 82.256 219.588 81.476C219.588 80.6613 219.398 79.9853 219.016 79.448C218.652 78.9107 218.158 78.642 217.534 78.642C217.118 78.642 216.737 78.7373 216.39 78.928C216.061 79.1187 215.723 79.448 215.376 79.916L213.088 79.604L214.44 72.194H221.564V74.508H216.312L215.766 77.342C216.078 77.0993 216.425 76.9 216.806 76.744C217.188 76.5707 217.595 76.484 218.028 76.484C218.895 76.484 219.64 76.7093 220.264 77.16C220.906 77.6107 221.4 78.2087 221.746 78.954C222.093 79.682 222.266 80.4793 222.266 81.346ZM226.227 86.234C225.69 86.234 225.23 86.0607 224.849 85.714C224.485 85.35 224.303 84.8993 224.303 84.362C224.303 83.842 224.485 83.4 224.849 83.036C225.23 82.6547 225.69 82.464 226.227 82.464C226.764 82.464 227.215 82.6547 227.579 83.036C227.96 83.4 228.151 83.842 228.151 84.362C228.151 84.8993 227.96 85.35 227.579 85.714C227.215 86.0607 226.764 86.234 226.227 86.234ZM237.16 86H234.508V76.198C233.988 76.6313 233.494 76.978 233.026 77.238C232.576 77.498 232.09 77.7147 231.57 77.888V75.47C232.368 75.106 233.07 74.6467 233.676 74.092C234.283 73.52 234.725 72.8873 235.002 72.194H237.16V86ZM251.157 86H241.797V84.492C241.797 84.1453 241.936 83.7727 242.213 83.374C242.49 82.9753 242.932 82.5073 243.539 81.97C243.92 81.6407 244.371 81.2333 244.891 80.748C245.428 80.2627 246.061 79.6907 246.789 79.032C247.361 78.512 247.786 78.018 248.063 77.55C248.358 77.0647 248.505 76.5187 248.505 75.912C248.505 75.34 248.323 74.898 247.959 74.586C247.595 74.274 247.136 74.118 246.581 74.118C245.992 74.118 245.498 74.3087 245.099 74.69C244.718 75.0713 244.492 75.6087 244.423 76.302L241.901 76.042C242.022 74.8113 242.534 73.832 243.435 73.104C244.336 72.376 245.428 72.012 246.711 72.012C247.543 72.012 248.297 72.168 248.973 72.48C249.649 72.792 250.195 73.234 250.611 73.806C251.027 74.3607 251.235 75.028 251.235 75.808C251.235 76.4147 251.131 77.03 250.923 77.654C250.715 78.278 250.325 78.8673 249.753 79.422C249.528 79.6473 249.172 79.994 248.687 80.462C248.219 80.9127 247.595 81.4933 246.815 82.204C246.503 82.4987 246.2 82.7587 245.905 82.984C245.628 83.2093 245.376 83.452 245.151 83.712H251.157V86ZM255.274 86.234C254.736 86.234 254.277 86.0607 253.896 85.714C253.532 85.35 253.35 84.8993 253.35 84.362C253.35 83.842 253.532 83.4 253.896 83.036C254.277 82.6547 254.736 82.464 255.274 82.464C255.811 82.464 256.262 82.6547 256.626 83.036C257.007 83.4 257.198 83.842 257.198 84.362C257.198 84.8993 257.007 85.35 256.626 85.714C256.262 86.0607 255.811 86.234 255.274 86.234ZM266.207 86H263.555V76.198C263.035 76.6313 262.541 76.978 262.073 77.238C261.623 77.498 261.137 77.7147 260.617 77.888V75.47C261.415 75.106 262.117 74.6467 262.723 74.092C263.33 73.52 263.772 72.8873 264.049 72.194H266.207V86ZM280.204 86H270.844V84.492C270.844 84.1453 270.983 83.7727 271.26 83.374C271.537 82.9753 271.979 82.5073 272.586 81.97C272.967 81.6407 273.418 81.2333 273.938 80.748C274.475 80.2627 275.108 79.6907 275.836 79.032C276.408 78.512 276.833 78.018 277.11 77.55C277.405 77.0647 277.552 76.5187 277.552 75.912C277.552 75.34 277.37 74.898 277.006 74.586C276.642 74.274 276.183 74.118 275.628 74.118C275.039 74.118 274.545 74.3087 274.146 74.69C273.765 75.0713 273.539 75.6087 273.47 76.302L270.948 76.042C271.069 74.8113 271.581 73.832 272.482 73.104C273.383 72.376 274.475 72.012 275.758 72.012C276.59 72.012 277.344 72.168 278.02 72.48C278.696 72.792 279.242 73.234 279.658 73.806C280.074 74.3607 280.282 75.028 280.282 75.808C280.282 76.4147 280.178 77.03 279.97 77.654C279.762 78.278 279.372 78.8673 278.8 79.422C278.575 79.6473 278.219 79.994 277.734 80.462C277.266 80.9127 276.642 81.4933 275.862 82.204C275.55 82.4987 275.247 82.7587 274.952 82.984C274.675 83.2093 274.423 83.452 274.198 83.712H280.204V86ZM291.17 80.592V78.408H298.398V80.592H291.17ZM318.747 86H309.387V84.492C309.387 84.1453 309.526 83.7727 309.803 83.374C310.08 82.9753 310.522 82.5073 311.129 81.97C311.51 81.6407 311.961 81.2333 312.481 80.748C313.018 80.2627 313.651 79.6907 314.379 79.032C314.951 78.512 315.376 78.018 315.653 77.55C315.948 77.0647 316.095 76.5187 316.095 75.912C316.095 75.34 315.913 74.898 315.549 74.586C315.185 74.274 314.726 74.118 314.171 74.118C313.582 74.118 313.088 74.3087 312.689 74.69C312.308 75.0713 312.082 75.6087 312.013 76.302L309.491 76.042C309.612 74.8113 310.124 73.832 311.025 73.104C311.926 72.376 313.018 72.012 314.301 72.012C315.133 72.012 315.887 72.168 316.563 72.48C317.239 72.792 317.785 73.234 318.201 73.806C318.617 74.3607 318.825 75.028 318.825 75.808C318.825 76.4147 318.721 77.03 318.513 77.654C318.305 78.278 317.915 78.8673 317.343 79.422C317.118 79.6473 316.762 79.994 316.277 80.462C315.809 80.9127 315.185 81.4933 314.405 82.204C314.093 82.4987 313.79 82.7587 313.495 82.984C313.218 83.2093 312.966 83.452 312.741 83.712H318.747V86ZM325.646 86.208C324.467 86.208 323.522 85.87 322.812 85.194C322.118 84.518 321.607 83.6427 321.278 82.568C320.966 81.4933 320.81 80.3407 320.81 79.11C320.81 77.862 320.966 76.7007 321.278 75.626C321.607 74.534 322.127 73.6587 322.838 73C323.548 72.3413 324.476 72.012 325.62 72.012C326.781 72.012 327.717 72.3327 328.428 72.974C329.138 73.6153 329.65 74.4733 329.962 75.548C330.291 76.6053 330.456 77.784 330.456 79.084C330.456 80.3493 330.291 81.528 329.962 82.62C329.65 83.6947 329.138 84.5613 328.428 85.22C327.717 85.8787 326.79 86.208 325.646 86.208ZM325.62 84.102C326.296 84.102 326.816 83.7033 327.18 82.906C327.561 82.0913 327.752 80.826 327.752 79.11C327.752 77.394 327.561 76.1373 327.18 75.34C326.816 74.5253 326.287 74.118 325.594 74.118C324.935 74.118 324.424 74.5253 324.06 75.34C323.696 76.1373 323.514 77.394 323.514 79.11C323.514 80.826 323.696 82.0913 324.06 82.906C324.441 83.7033 324.961 84.102 325.62 84.102ZM341.852 86H332.492V84.492C332.492 84.1453 332.631 83.7727 332.908 83.374C333.186 82.9753 333.628 82.5073 334.234 81.97C334.616 81.6407 335.066 81.2333 335.586 80.748C336.124 80.2627 336.756 79.6907 337.484 79.032C338.056 78.512 338.481 78.018 338.758 77.55C339.053 77.0647 339.2 76.5187 339.2 75.912C339.2 75.34 339.018 74.898 338.654 74.586C338.29 74.274 337.831 74.118 337.276 74.118C336.687 74.118 336.193 74.3087 335.794 74.69C335.413 75.0713 335.188 75.6087 335.118 76.302L332.596 76.042C332.718 74.8113 333.229 73.832 334.13 73.104C335.032 72.376 336.124 72.012 337.406 72.012C338.238 72.012 338.992 72.168 339.668 72.48C340.344 72.792 340.89 73.234 341.306 73.806C341.722 74.3607 341.93 75.028 341.93 75.808C341.93 76.4147 341.826 77.03 341.618 77.654C341.41 78.278 341.02 78.8673 340.448 79.422C340.223 79.6473 339.868 79.994 339.382 80.462C338.914 80.9127 338.29 81.4933 337.51 82.204C337.198 82.4987 336.895 82.7587 336.6 82.984C336.323 83.2093 336.072 83.452 335.846 83.712H341.852V86ZM353.561 81.346C353.561 82.2647 353.362 83.0967 352.963 83.842C352.564 84.57 352.001 85.1507 351.273 85.584C350.545 86 349.678 86.208 348.673 86.208C347.702 86.208 346.81 85.974 345.995 85.506C345.198 85.0207 344.608 84.2753 344.227 83.27L346.801 82.542C346.957 83.0273 347.208 83.4173 347.555 83.712C347.919 83.9893 348.335 84.128 348.803 84.128C349.392 84.128 349.886 83.8853 350.285 83.4C350.684 82.8973 350.883 82.256 350.883 81.476C350.883 80.6613 350.692 79.9853 350.311 79.448C349.947 78.9107 349.453 78.642 348.829 78.642C348.413 78.642 348.032 78.7373 347.685 78.928C347.356 79.1187 347.018 79.448 346.671 79.916L344.383 79.604L345.735 72.194H352.859V74.508H347.607L347.061 77.342C347.373 77.0993 347.72 76.9 348.101 76.744C348.482 76.5707 348.89 76.484 349.323 76.484C350.19 76.484 350.935 76.7093 351.559 77.16C352.2 77.6107 352.694 78.2087 353.041 78.954C353.388 79.682 353.561 80.4793 353.561 81.346ZM357.522 86.234C356.985 86.234 356.525 86.0607 356.144 85.714C355.78 85.35 355.598 84.8993 355.598 84.362C355.598 83.842 355.78 83.4 356.144 83.036C356.525 82.6547 356.985 82.464 357.522 82.464C358.059 82.464 358.51 82.6547 358.874 83.036C359.255 83.4 359.446 83.842 359.446 84.362C359.446 84.8993 359.255 85.35 358.874 85.714C358.51 86.0607 358.059 86.234 357.522 86.234ZM368.455 86H365.803V76.198C365.283 76.6313 364.789 76.978 364.321 77.238C363.871 77.498 363.385 77.7147 362.865 77.888V75.47C363.663 75.106 364.365 74.6467 364.971 74.092C365.578 73.52 366.02 72.8873 366.297 72.194H368.455V86ZM382.452 86H373.092V84.492C373.092 84.1453 373.231 83.7727 373.508 83.374C373.785 82.9753 374.227 82.5073 374.834 81.97C375.215 81.6407 375.666 81.2333 376.186 80.748C376.723 80.2627 377.356 79.6907 378.084 79.032C378.656 78.512 379.081 78.018 379.358 77.55C379.653 77.0647 379.8 76.5187 379.8 75.912C379.8 75.34 379.618 74.898 379.254 74.586C378.89 74.274 378.431 74.118 377.876 74.118C377.287 74.118 376.793 74.3087 376.394 74.69C376.013 75.0713 375.787 75.6087 375.718 76.302L373.196 76.042C373.317 74.8113 373.829 73.832 374.73 73.104C375.631 72.376 376.723 72.012 378.006 72.012C378.838 72.012 379.592 72.168 380.268 72.48C380.944 72.792 381.49 73.234 381.906 73.806C382.322 74.3607 382.53 75.028 382.53 75.808C382.53 76.4147 382.426 77.03 382.218 77.654C382.01 78.278 381.62 78.8673 381.048 79.422C380.823 79.6473 380.467 79.994 379.982 80.462C379.514 80.9127 378.89 81.4933 378.11 82.204C377.798 82.4987 377.495 82.7587 377.2 82.984C376.923 83.2093 376.671 83.452 376.446 83.712H382.452V86ZM386.569 86.234C386.031 86.234 385.572 86.0607 385.191 85.714C384.827 85.35 384.645 84.8993 384.645 84.362C384.645 83.842 384.827 83.4 385.191 83.036C385.572 82.6547 386.031 82.464 386.569 82.464C387.106 82.464 387.557 82.6547 387.921 83.036C388.302 83.4 388.493 83.842 388.493 84.362C388.493 84.8993 388.302 85.35 387.921 85.714C387.557 86.0607 387.106 86.234 386.569 86.234ZM399.998 81.762C399.998 82.594 399.781 83.348 399.348 84.024C398.932 84.6827 398.36 85.2113 397.632 85.61C396.904 85.9913 396.081 86.182 395.162 86.182C393.827 86.182 392.761 85.8093 391.964 85.064C391.167 84.3013 390.707 83.3047 390.586 82.074L393.212 81.684C393.281 82.4467 393.463 83.0447 393.758 83.478C394.053 83.894 394.521 84.102 395.162 84.102C395.717 84.102 396.211 83.8853 396.644 83.452C397.077 83.0187 397.294 82.4813 397.294 81.84C397.294 81.164 397.077 80.644 396.644 80.28C396.211 79.916 395.751 79.734 395.266 79.734C395.214 79.734 395.093 79.7427 394.902 79.76C394.729 79.76 394.547 79.7687 394.356 79.786C394.183 79.786 394.07 79.786 394.018 79.786V77.784C394.139 77.784 394.278 77.7927 394.434 77.81C394.607 77.81 394.798 77.81 395.006 77.81C395.439 77.81 395.829 77.628 396.176 77.264C396.523 76.8827 396.696 76.3627 396.696 75.704C396.696 75.236 396.523 74.8547 396.176 74.56C395.847 74.2653 395.457 74.118 395.006 74.118C394.469 74.118 394.035 74.2827 393.706 74.612C393.377 74.9413 393.143 75.4007 393.004 75.99L390.612 75.704C390.82 74.6293 391.323 73.7453 392.12 73.052C392.917 72.3587 393.905 72.012 395.084 72.012C395.951 72.012 396.705 72.1767 397.346 72.506C398.005 72.8353 398.507 73.286 398.854 73.858C399.218 74.4127 399.4 75.0453 399.4 75.756C399.4 76.328 399.244 76.8567 398.932 77.342C398.637 77.81 398.247 78.2087 397.762 78.538C398.455 78.85 399.001 79.2833 399.4 79.838C399.799 80.3927 399.998 81.034 399.998 81.762ZM409.055 86H406.403V76.198C405.883 76.6313 405.389 76.978 404.921 77.238C404.47 77.498 403.985 77.7147 403.465 77.888V75.47C404.262 75.106 404.964 74.6467 405.571 74.092C406.178 73.52 406.62 72.8873 406.897 72.194H409.055V86ZM427.379 68.658H429.199L422.153 89.12H420.307L427.379 68.658ZM444.906 86H442.254V76.198C441.734 76.6313 441.24 76.978 440.772 77.238C440.322 77.498 439.836 77.7147 439.316 77.888V75.47C440.114 75.106 440.816 74.6467 441.422 74.092C442.029 73.52 442.471 72.8873 442.748 72.194H444.906V86ZM449.171 86V85.16L451.691 84.88H452.291L454.811 85.16V86H449.171ZM450.691 86C450.718 85.08 450.731 84.1467 450.731 83.2C450.745 82.24 450.751 81.2733 450.751 80.3V79.5C450.751 78.5533 450.745 77.6067 450.731 76.66C450.731 75.7 450.718 74.7467 450.691 73.8H453.171C453.131 74.7333 453.111 75.68 453.111 76.64C453.111 77.5867 453.111 78.54 453.111 79.5V80.62C453.111 81.4733 453.111 82.3467 453.111 83.24C453.111 84.1333 453.131 85.0533 453.171 86H450.691ZM451.931 81.26V80.32H454.011C454.985 80.32 455.691 80.0533 456.131 79.52C456.585 78.9867 456.811 78.3 456.811 77.46C456.811 76.58 456.571 75.9133 456.091 75.46C455.625 74.9933 454.911 74.76 453.951 74.76H451.931V73.8H454.131C455.851 73.8 457.111 74.14 457.911 74.82C458.725 75.4867 459.131 76.3667 459.131 77.46C459.131 78.14 458.958 78.7733 458.611 79.36C458.278 79.9333 457.725 80.3933 456.951 80.74C456.178 81.0867 455.151 81.26 453.871 81.26H451.931ZM449.171 74.66V73.8H451.931V74.92H451.691L449.171 74.66ZM460.026 86V85.16L462.046 84.88H462.486L464.306 85.16V86H460.026ZM460.086 74.66V73.8H462.626L462.646 74.92H462.366L460.086 74.66ZM461.746 86V73.8H462.646L462.786 79.72V86H461.746ZM466.586 86L461.786 73.8H464.166L468.086 83.82H467.466L471.186 73.8H472.266L467.746 86H466.586ZM469.886 86V85.16L472.186 84.88H472.766L475.306 85.16V86H469.886ZM471.326 86C471.353 85.08 471.366 84.1533 471.366 83.22C471.38 82.2733 471.386 81.36 471.386 80.48L471.406 73.8H473.786C473.746 74.7333 473.726 75.68 473.726 76.64C473.726 77.5867 473.726 78.54 473.726 79.5V80.3C473.726 81.26 473.726 82.22 473.726 83.18C473.726 84.1267 473.746 85.0667 473.786 86H471.326ZM472.546 74.92V73.8H475.266V74.66L472.766 74.92H472.546ZM485.894 80.592V78.408H493.122V80.592H485.894ZM513.628 81.346C513.628 82.2647 513.428 83.0967 513.03 83.842C512.631 84.57 512.068 85.1507 511.34 85.584C510.612 86 509.745 86.208 508.74 86.208C507.769 86.208 506.876 85.974 506.062 85.506C505.264 85.0207 504.675 84.2753 504.294 83.27L506.868 82.542C507.024 83.0273 507.275 83.4173 507.622 83.712C507.986 83.9893 508.402 84.128 508.87 84.128C509.459 84.128 509.953 83.8853 510.352 83.4C510.75 82.8973 510.95 82.256 510.95 81.476C510.95 80.6613 510.759 79.9853 510.378 79.448C510.014 78.9107 509.52 78.642 508.896 78.642C508.48 78.642 508.098 78.7373 507.752 78.928C507.422 79.1187 507.084 79.448 506.738 79.916L504.45 79.604L505.802 72.194H512.926V74.508H507.674L507.128 77.342C507.44 77.0993 507.786 76.9 508.168 76.744C508.549 76.5707 508.956 76.484 509.39 76.484C510.256 76.484 511.002 76.7093 511.626 77.16C512.267 77.6107 512.761 78.2087 513.108 78.954C513.454 79.682 513.628 80.4793 513.628 81.346ZM515.292 86V85.16L517.812 84.88H518.412L520.932 85.16V86H515.292ZM516.812 86C516.839 85.08 516.852 84.1467 516.852 83.2C516.866 82.24 516.872 81.2733 516.872 80.3V79.5C516.872 78.5533 516.866 77.6067 516.852 76.66C516.852 75.7 516.839 74.7467 516.812 73.8H519.292C519.252 74.7333 519.232 75.68 519.232 76.64C519.232 77.5867 519.232 78.54 519.232 79.5V80.62C519.232 81.4733 519.232 82.3467 519.232 83.24C519.232 84.1333 519.252 85.0533 519.292 86H516.812ZM518.052 81.26V80.32H520.132C521.106 80.32 521.812 80.0533 522.252 79.52C522.706 78.9867 522.932 78.3 522.932 77.46C522.932 76.58 522.692 75.9133 522.212 75.46C521.746 74.9933 521.032 74.76 520.072 74.76H518.052V73.8H520.252C521.972 73.8 523.232 74.14 524.032 74.82C524.846 75.4867 525.252 76.3667 525.252 77.46C525.252 78.14 525.079 78.7733 524.732 79.36C524.399 79.9333 523.846 80.3933 523.072 80.74C522.299 81.0867 521.272 81.26 519.992 81.26H518.052ZM515.292 74.66V73.8H518.052V74.92H517.812L515.292 74.66ZM526.147 86V85.16L528.167 84.88H528.607L530.427 85.16V86H526.147ZM526.207 74.66V73.8H528.747L528.767 74.92H528.487L526.207 74.66ZM527.867 86V73.8H528.767L528.907 79.72V86H527.867ZM532.707 86L527.907 73.8H530.287L534.207 83.82H533.587L537.307 73.8H538.387L533.867 86H532.707ZM536.007 86V85.16L538.307 84.88H538.887L541.427 85.16V86H536.007ZM537.447 86C537.474 85.08 537.487 84.1533 537.487 83.22C537.501 82.2733 537.507 81.36 537.507 80.48L537.527 73.8H539.907C539.867 74.7333 539.847 75.68 539.847 76.64C539.847 77.5867 539.847 78.54 539.847 79.5V80.3C539.847 81.26 539.847 82.22 539.847 83.18C539.847 84.1267 539.867 85.0667 539.907 86H537.447ZM538.667 74.92V73.8H541.387V74.66L538.887 74.92H538.667Z" fill="#FF5050"/>
<rect width="3" height="20" transform="matrix(-1 0 0 1 159 69)" fill="#FF5050"/>
</svg>
