<svg width="54" height="68" viewBox="0 0 54 68" fill="none" xmlns="http://www.w3.org/2000/svg">
<circle cx="20.1275" cy="38.927" r="2.52322" fill="#FF5050"/>
<circle cx="34.5099" cy="41.7026" r="1.76625" fill="#FF5050"/>
<path d="M22.3984 47.506C22.819 49.0199 25.3758 51.2403 32.239 48.0106" stroke="#FF5050" stroke-width="2.01858" stroke-linecap="round"/>
<path d="M26.1043 21.1903C35.17 21.6134 44.9569 22.5823 51.6043 23.4039C52.1043 36.0705 51.9043 62.0039 47.1043 64.4039C41.1043 67.4039 5.6043 62.9039 3.1043 61.4039C1.1043 60.2039 2.27097 35.5705 3.1043 23.4039C4.87026 20.9757 14.9403 20.6692 26.1043 21.1903ZM26.1043 21.1903L13.1043 10.4038C12.4376 5.5705 12.6043 -2.29616 18.6043 4.90384C24.6043 12.1038 26.1043 18.7615 26.1043 21.1903ZM26.1043 21.1903C28.4376 15.7615 33.7043 4.90384 36.1043 4.90384C39.1043 4.90384 43.1043 6.90386 39.6043 10.4038C36.8043 13.2038 29.4376 18.7615 26.1043 21.1903ZM26.1043 21.1903L18.6043 29.4038M26.1043 21.1903L31.6043 29.4038" stroke="#FF5050" stroke-width="4" stroke-linecap="round"/>
</svg>
