<svg width="82" height="89" viewBox="0 0 82 89" fill="none" xmlns="http://www.w3.org/2000/svg">
<path d="M25.4307 5.80736C20.8014 7.61883 19.9796 14.7808 20.1473 18.1354V25.18C20.1473 27.1927 20.1473 30.9666 23.9212 32.7277C26.9403 34.1367 33.378 34.7192 35.9778 35.2223C43.0223 35.2223 52.6027 33.4612 56.6282 28.7023C59.8767 24.8618 57.6361 18.1401 56.6293 15.1195L56.6282 15.1163C55.6218 12.0972 55.3702 8.07168 52.6027 5.80736C49.8352 3.54304 40.7779 2.03348 39.0167 1.78188C37.2556 1.53029 31.2174 3.54303 25.4307 5.80736Z" stroke="#FF5050" stroke-width="3.52229" stroke-linecap="round"/>
<path d="M49.6736 41.398C43.1443 38.8709 31.446 40.345 26.413 41.398C14.9868 52.8489 19.6797 70.8149 19.0676 72.197C18.4555 73.579 22.1282 81.0813 27.6373 84.8324C33.1463 88.5836 56.2028 84.4376 63.1402 80.0941C70.0775 75.7507 65.5887 60.1538 64.3644 54.4283C63.1402 48.7028 57.8352 44.5568 49.6736 41.398Z" stroke="#FF5050" stroke-width="3.52229" stroke-linecap="round"/>
<circle cx="31.1975" cy="16.8561" r="2.51592" fill="#FF5050"/>
<circle cx="45.5382" cy="19.6236" r="1.76115" fill="#FF5050"/>
<circle cx="37.9905" cy="49.3115" r="1.76115" fill="#FF5050"/>
<circle cx="38.9969" cy="60.3816" r="1.76115" fill="#FF5050"/>
<circle cx="41.0096" cy="72.9612" r="1.76115" fill="#FF5050"/>
<path d="M33.4619 25.4102C33.8812 26.9198 36.4306 29.1338 43.274 25.9134" stroke="#FF5050" stroke-width="2.01274" stroke-linecap="round"/>
<path d="M62.6465 51.8274C63.8542 51.2236 71.7039 48.7245 75.4778 47.5504M75.4778 47.5504L76.9873 43.7765M75.4778 47.5504H80.0064M75.4778 47.5504L76.9873 50.8211" stroke="#FF5050" stroke-width="2.01274" stroke-linecap="round"/>
<path d="M18.3663 51.0727C17.1586 50.4689 9.30895 47.9697 5.53506 46.7956M5.53506 46.7956L4.02551 43.0217M5.53506 46.7956H1.0064M5.53506 46.7956L4.02551 50.0663" stroke="#FF5050" stroke-width="2.01274" stroke-linecap="round"/>
</svg>
