<svg width="794" height="651" viewBox="0 0 794 651" fill="none" xmlns="http://www.w3.org/2000/svg">
<g clip-path="url(#clip0_577_192)">
<rect width="765" height="400" transform="translate(14.5001 238.5)" fill="#FFEDDB"/>
<circle cx="625.419" cy="428.513" r="29.0126" fill="white"/>
<circle cx="637.449" cy="488.661" r="41.0422" fill="white"/>
<path d="M663.631 466.017C684.577 459.79 687.454 456.346 686.275 455.402" stroke="#5B3808" stroke-width="2"/>
<path d="M601.907 468.145C588.629 460.35 587.15 456.888 588.071 456.132" stroke="#5B3808" stroke-width="2"/>
<circle cx="610.559" cy="423.559" r="2.83049" fill="black"/>
<circle cx="631.788" cy="426.39" r="2.83049" fill="black"/>
<path d="M610.6 436.231C609.28 435.815 609.28 433.947 610.6 433.531L616.149 431.784C617.061 431.497 617.989 432.178 617.989 433.134V436.629C617.989 437.585 617.061 438.266 616.149 437.979L610.6 436.231Z" fill="#E8480D"/>
<path d="M183.688 304.39C185.275 302.047 188.725 302.047 190.312 304.39L232.221 366.269C234.02 368.925 232.117 372.512 228.909 372.512H145.091C141.883 372.512 139.981 368.925 141.78 366.269L183.688 304.39Z" fill="#5BB844"/>
<path d="M183.686 338.102C185.272 335.755 188.728 335.755 190.314 338.102L247.303 422.435C249.098 425.091 247.194 428.674 243.988 428.674H130.012C126.806 428.674 124.903 425.091 126.698 422.435L183.686 338.102Z" fill="#5BB844"/>
<rect x="174.493" y="428.05" width="26.1022" height="32.4496" fill="#763F08"/>
<path d="M366.5 480.5C266.9 441.7 86.0001 450.667 8.00009 460L-41.4999 730.5H874V441.5C850 445.5 795 460.3 767 487.5C732 521.5 491 529 366.5 480.5Z" fill="white"/>
</g>
<path d="M10.8864 118.142V288.226C12.1898 296.996 12.5374 316.416 3.50009 323.934" stroke="#FF5050" stroke-width="7" stroke-linecap="round"/>
<path d="M11.1036 529.099V359.015C12.4071 350.244 12.7546 330.824 3.71733 323.307" stroke="#FF5050" stroke-width="7" stroke-linecap="round"/>
<path d="M783.114 118.142V288.226C781.81 296.996 781.463 316.416 790.5 323.934" stroke="#FF5050" stroke-width="7" stroke-linecap="round"/>
<path d="M782.897 529.099V359.015C781.593 350.244 781.246 330.824 790.283 323.307" stroke="#FF5050" stroke-width="7" stroke-linecap="round"/>
<path d="M710.192 11.6438L437.003 13.9468C426.265 10.6293 402.489 9.74458 393.285 32.7463" stroke="#FF5050" stroke-width="7" stroke-linecap="round"/>
<path d="M85.1835 10.0781L350.335 13.3943C361.072 10.0768 384.848 9.1921 394.052 32.1938" stroke="#FF5050" stroke-width="7" stroke-linecap="round"/>
<path d="M710.192 641.462L437.003 639.159C426.265 642.477 402.489 643.362 393.285 620.36" stroke="#FF5050" stroke-width="7" stroke-linecap="round"/>
<path d="M85.1835 643.028L350.335 639.712C361.072 643.029 384.848 643.914 394.052 620.912" stroke="#FF5050" stroke-width="7" stroke-linecap="round"/>
<path d="M9.29434 96.5288V33.8829C7.99088 31.7947 6.38328 26.8666 10.3806 23.8596C14.0737 23.5463 13.422 17.2817 13.2047 16.342" stroke="#FF5050" stroke-width="7" stroke-linecap="round"/>
<path d="M68.3844 9.9748H24.9358C23.4875 8.09542 20.0696 5.77752 17.9841 11.5409C17.7668 16.8658 13.422 15.9262 12.7702 15.6129" stroke="#FF5050" stroke-width="7" stroke-linecap="round"/>
<path d="M784.706 96.5288V33.8829C786.009 31.7947 787.617 26.8666 783.62 23.8596C779.927 23.5463 780.578 17.2817 780.795 16.342" stroke="#FF5050" stroke-width="7" stroke-linecap="round"/>
<path d="M725.616 9.9748H769.064C770.513 8.09542 773.931 5.77752 776.016 11.5409C776.233 16.8658 780.578 15.9262 781.23 15.6129" stroke="#FF5050" stroke-width="7" stroke-linecap="round"/>
<path d="M9.29434 554.157V616.803C7.99088 618.892 6.38328 623.82 10.3806 626.827C14.0737 627.14 13.422 633.405 13.2047 634.344" stroke="#FF5050" stroke-width="7" stroke-linecap="round"/>
<path d="M68.3844 640.711H24.9358C23.4875 642.591 20.0696 644.909 17.9841 639.145C17.7668 633.82 13.422 634.76 12.7702 635.073" stroke="#FF5050" stroke-width="7" stroke-linecap="round"/>
<path d="M784.706 554.157V616.803C786.009 618.892 787.617 623.82 783.62 626.827C779.927 627.14 780.578 633.405 780.795 634.344" stroke="#FF5050" stroke-width="7" stroke-linecap="round"/>
<path d="M725.616 640.711H769.064C770.513 642.591 773.931 644.909 776.016 639.145C776.233 633.82 780.578 634.76 781.23 635.073" stroke="#FF5050" stroke-width="7" stroke-linecap="round"/>
<path d="M13.3448 18.535C13.2 13.5233 11.8241 3.5 9.2172 3.5C5.95856 3.5 5.30683 8.19845 7.04477 10.7043C8.78272 13.2101 13.3448 15.4027 14.2138 15.716" stroke="#FF5050" stroke-width="7" stroke-linecap="round"/>
<path d="M780.795 18.535C780.94 13.5233 782.316 3.5 784.923 3.5C788.182 3.5 788.833 8.19845 787.095 10.7043C785.357 13.2101 780.795 15.4027 779.926 15.716" stroke="#FF5050" stroke-width="7" stroke-linecap="round"/>
<path d="M395.583 28.024C393.707 32.2489 390.847 41.5971 392.982 43.7533C395.651 46.4485 398.054 43.1389 397.628 39.6489C397.201 36.159 394.336 30.5897 393.749 29.6144" stroke="#FF5050" stroke-width="7" stroke-linecap="round"/>
<path d="M395.583 625.081C393.707 620.857 390.847 611.508 392.982 609.352C395.651 606.657 398.054 609.967 397.628 613.457C397.201 616.947 394.336 622.516 393.749 623.491" stroke="#FF5050" stroke-width="7" stroke-linecap="round"/>
<path d="M13.3448 632.465C13.2 637.477 11.8241 647.5 9.2172 647.5C5.95856 647.5 5.30683 642.802 7.04477 640.296C8.78272 637.79 13.3448 635.597 14.2138 635.284" stroke="#FF5050" stroke-width="7" stroke-linecap="round"/>
<path d="M780.795 631.839C780.94 636.85 782.316 646.874 784.923 646.874C788.182 646.874 788.833 642.175 787.095 639.669C785.357 637.164 780.795 634.971 779.926 634.658" stroke="#FF5050" stroke-width="7" stroke-linecap="round"/>
<defs>
<clipPath id="clip0_577_192">
<rect width="765" height="400" fill="white" transform="translate(14.5001 238.5)"/>
</clipPath>
</defs>
</svg>
