<svg width="1819" height="1035" viewBox="0 0 1819 1035" fill="none" xmlns="http://www.w3.org/2000/svg">
<path d="M20.5005 186.5V458C23.5005 472 24.3005 503 3.50049 515" stroke="#FF5050" stroke-width="7" stroke-linecap="round"/>
<path d="M21.0005 842.5V571C24.0005 557 24.8005 526 4.00049 514" stroke="#FF5050" stroke-width="7" stroke-linecap="round"/>
<path d="M1797.84 186.5V458C1794.84 472 1794.04 503 1814.84 515" stroke="#FF5050" stroke-width="7" stroke-linecap="round"/>
<path d="M1797.34 842.5V571C1794.34 557 1793.54 526 1814.34 514" stroke="#FF5050" stroke-width="7" stroke-linecap="round"/>
<path d="M1630 16.5L1001.24 20.1763C976.523 14.8806 921.801 13.4684 900.618 50.1855" stroke="#FF5050" stroke-width="7" stroke-linecap="round"/>
<path d="M191.5 14L801.764 19.2937C826.478 13.998 881.2 12.5858 902.383 49.3028" stroke="#FF5050" stroke-width="7" stroke-linecap="round"/>
<path d="M1630 1021.86L1001.24 1018.19C976.523 1023.48 921.801 1024.89 900.618 988.176" stroke="#FF5050" stroke-width="7" stroke-linecap="round"/>
<path d="M191.5 1024.36L801.764 1019.07C826.478 1024.36 881.2 1025.78 902.383 989.059" stroke="#FF5050" stroke-width="7" stroke-linecap="round"/>
<path d="M16.8364 152V52C13.8364 48.6667 10.1364 40.8 19.3364 36C27.8364 35.5 26.3364 25.5 25.8364 24" stroke="#FF5050" stroke-width="7" stroke-linecap="round"/>
<path d="M152.836 13.8359H52.8364C49.5031 10.8359 41.6364 7.13587 36.8364 16.3359C36.3364 24.8359 26.3364 23.3359 24.8364 22.8359" stroke="#FF5050" stroke-width="7" stroke-linecap="round"/>
<path d="M1801.5 152V52C1804.5 48.6667 1808.2 40.8 1799 36C1790.5 35.5 1792 25.5 1792.5 24" stroke="#FF5050" stroke-width="7" stroke-linecap="round"/>
<path d="M1665.5 13.8359H1765.5C1768.83 10.8359 1776.7 7.13587 1781.5 16.3359C1782 24.8359 1792 23.3359 1793.5 22.8359" stroke="#FF5050" stroke-width="7" stroke-linecap="round"/>
<path d="M16.8364 882.5V982.5C13.8364 985.833 10.1364 993.7 19.3364 998.5C27.8364 999 26.3364 1009 25.8364 1010.5" stroke="#FF5050" stroke-width="7" stroke-linecap="round"/>
<path d="M152.836 1020.66H52.8364C49.5031 1023.66 41.6364 1027.36 36.8364 1018.16C36.3364 1009.66 26.3364 1011.16 24.8364 1011.66" stroke="#FF5050" stroke-width="7" stroke-linecap="round"/>
<path d="M1801.5 882.5V982.5C1804.5 985.833 1808.2 993.7 1799 998.5C1790.5 999 1792 1009 1792.5 1010.5" stroke="#FF5050" stroke-width="7" stroke-linecap="round"/>
<path d="M1665.5 1020.66H1765.5C1768.83 1023.66 1776.7 1027.36 1781.5 1018.16C1782 1009.66 1792 1011.16 1793.5 1011.66" stroke="#FF5050" stroke-width="7" stroke-linecap="round"/>
<path d="M26.1588 27.5C25.8255 19.5 22.6588 3.5 16.6588 3.5C9.15884 3.5 7.65884 11 11.6588 15C15.6588 19 26.1588 22.5 28.1588 23" stroke="#FF5050" stroke-width="7" stroke-linecap="round"/>
<path d="M1792.5 27.5C1792.83 19.5 1796 3.5 1802 3.5C1809.5 3.5 1811 11 1807 15C1803 19 1792.5 22.5 1790.5 23" stroke="#FF5050" stroke-width="7" stroke-linecap="round"/>
<path d="M905.906 42.6473C901.59 49.3914 895.006 64.3137 899.92 67.7555C906.064 72.0577 911.594 66.7748 910.613 61.2039C909.631 55.6329 903.038 46.7428 901.686 45.186" stroke="#FF5050" stroke-width="7" stroke-linecap="round"/>
<path d="M905.906 995.714C901.59 988.97 895.006 974.048 899.92 970.606C906.064 966.304 911.594 971.587 910.613 977.158C909.631 982.729 903.038 991.619 901.686 993.176" stroke="#FF5050" stroke-width="7" stroke-linecap="round"/>
<path d="M26.1588 1007.5C25.8255 1015.5 22.6588 1031.5 16.6588 1031.5C9.15884 1031.5 7.65884 1024 11.6588 1020C15.6588 1016 26.1588 1012.5 28.1588 1012" stroke="#FF5050" stroke-width="7" stroke-linecap="round"/>
<path d="M1792.5 1006.5C1792.83 1014.5 1796 1030.5 1802 1030.5C1809.5 1030.5 1811 1023 1807 1019C1803 1015 1792.5 1011.5 1790.5 1011" stroke="#FF5050" stroke-width="7" stroke-linecap="round"/>
</svg>
